<svg width="315" height="226" viewBox="0 0 315 226" fill="none" xmlns="http://www.w3.org/2000/svg">
<path d="M36 63V16H192V63H36Z" fill="#FFC85A" stroke="#757575" stroke-width="0.945547"/>
<path d="M108.06 31.504H111.168V32.332H108.06V31.504ZM108.696 28.816H112.68V29.668H108.696V28.816ZM112.308 28.816H113.172C113.172 28.816 113.172 28.848 113.172 28.912C113.172 28.968 113.172 29.036 113.172 29.116C113.172 29.188 113.172 29.244 113.172 29.284C113.132 30.7 113.092 31.896 113.052 32.872C113.012 33.848 112.964 34.648 112.908 35.272C112.86 35.896 112.796 36.38 112.716 36.724C112.636 37.06 112.54 37.3 112.428 37.444C112.3 37.62 112.16 37.74 112.008 37.804C111.864 37.868 111.692 37.912 111.492 37.936C111.292 37.96 111.028 37.968 110.7 37.96C110.38 37.952 110.048 37.94 109.704 37.924C109.696 37.796 109.668 37.648 109.62 37.48C109.572 37.32 109.508 37.18 109.428 37.06C109.804 37.092 110.148 37.108 110.46 37.108C110.78 37.116 111.008 37.12 111.144 37.12C111.264 37.12 111.36 37.108 111.432 37.084C111.504 37.06 111.572 37.008 111.636 36.928C111.732 36.824 111.812 36.608 111.876 36.28C111.948 35.952 112.008 35.484 112.056 34.876C112.112 34.26 112.156 33.472 112.188 32.512C112.228 31.552 112.268 30.388 112.308 29.02V28.816ZM109.02 26.932L109.932 27.124C109.804 27.644 109.648 28.156 109.464 28.66C109.28 29.164 109.076 29.636 108.852 30.076C108.636 30.516 108.408 30.904 108.168 31.24C108.112 31.192 108.036 31.136 107.94 31.072C107.844 31 107.744 30.932 107.64 30.868C107.536 30.796 107.444 30.74 107.364 30.7C107.732 30.244 108.056 29.68 108.336 29.008C108.624 28.328 108.852 27.636 109.02 26.932ZM107.712 34.72C108.16 34.608 108.696 34.464 109.32 34.288C109.944 34.104 110.584 33.92 111.24 33.736L111.36 34.516C110.784 34.708 110.204 34.896 109.62 35.08C109.044 35.256 108.516 35.416 108.036 35.56L107.712 34.72ZM103.524 34.6H106.656V35.332H103.524V34.6ZM102.66 28.264H107.496V29.056H102.66V28.264ZM102.468 30.976H107.628V31.768H102.468V30.976ZM103.584 32.692H107.136V37.372H103.584V36.616H106.284V33.436H103.584V32.692ZM104.604 26.92H105.492V28.78H104.604V26.92ZM103.296 29.188L104.04 29.032C104.152 29.32 104.248 29.636 104.328 29.98C104.416 30.324 104.472 30.624 104.496 30.88L103.716 31.048C103.7 30.8 103.652 30.5 103.572 30.148C103.492 29.796 103.4 29.476 103.296 29.188ZM106.056 28.996L106.872 29.2C106.768 29.52 106.66 29.852 106.548 30.196C106.436 30.532 106.332 30.82 106.236 31.06L105.552 30.868C105.608 30.7 105.668 30.508 105.732 30.292C105.796 30.068 105.856 29.84 105.912 29.608C105.976 29.376 106.024 29.172 106.056 28.996ZM103.14 32.692H103.968V37.924H103.14V32.692ZM117.72 29.752H125.232V30.604H117.72V29.752ZM117.192 32.5V36.016H116.316V33.34H114.612V32.5H117.192ZM117.192 35.524C117.48 35.964 117.88 36.292 118.392 36.508C118.904 36.724 119.508 36.848 120.204 36.88C120.524 36.888 120.916 36.896 121.38 36.904C121.852 36.904 122.344 36.9 122.856 36.892C123.368 36.884 123.864 36.872 124.344 36.856C124.824 36.84 125.24 36.82 125.592 36.796C125.56 36.868 125.524 36.956 125.484 37.06C125.444 37.172 125.408 37.284 125.376 37.396C125.344 37.508 125.32 37.608 125.304 37.696C124.976 37.712 124.588 37.724 124.14 37.732C123.7 37.748 123.24 37.756 122.76 37.756C122.28 37.764 121.816 37.764 121.368 37.756C120.92 37.756 120.532 37.748 120.204 37.732C119.428 37.7 118.76 37.568 118.2 37.336C117.648 37.112 117.18 36.768 116.796 36.304C116.5 36.56 116.192 36.816 115.872 37.072C115.56 37.336 115.236 37.596 114.9 37.852L114.444 36.952C114.74 36.768 115.06 36.552 115.404 36.304C115.748 36.048 116.08 35.788 116.4 35.524H117.192ZM115.176 27.628L115.788 27.076C116.036 27.204 116.288 27.352 116.544 27.52C116.8 27.688 117.04 27.86 117.264 28.036C117.488 28.212 117.668 28.384 117.804 28.552L117.168 29.164C117.04 29.004 116.864 28.832 116.64 28.648C116.424 28.464 116.188 28.284 115.932 28.108C115.676 27.924 115.424 27.764 115.176 27.628ZM114.684 30.064L115.272 29.488C115.528 29.608 115.792 29.748 116.064 29.908C116.344 30.068 116.604 30.24 116.844 30.424C117.092 30.6 117.288 30.768 117.432 30.928L116.82 31.576C116.676 31.416 116.484 31.244 116.244 31.06C116.012 30.876 115.76 30.696 115.488 30.52C115.216 30.344 114.948 30.192 114.684 30.064ZM120.924 26.956H121.812C121.796 28.06 121.756 29.08 121.692 30.016C121.628 30.952 121.48 31.8 121.248 32.56C121.024 33.32 120.672 33.992 120.192 34.576C119.712 35.152 119.048 35.64 118.2 36.04C118.168 35.968 118.116 35.888 118.044 35.8C117.972 35.712 117.896 35.628 117.816 35.548C117.744 35.46 117.672 35.396 117.6 35.356C118.4 34.996 119.02 34.552 119.46 34.024C119.908 33.496 120.232 32.88 120.432 32.176C120.64 31.472 120.768 30.688 120.816 29.824C120.872 28.952 120.908 27.996 120.924 26.956ZM121.884 30.256C122.036 31.096 122.252 31.848 122.532 32.512C122.82 33.168 123.2 33.724 123.672 34.18C124.152 34.636 124.744 34.988 125.448 35.236C125.392 35.292 125.324 35.368 125.244 35.464C125.172 35.552 125.104 35.644 125.04 35.74C124.976 35.836 124.924 35.924 124.884 36.004C124.132 35.7 123.504 35.292 123 34.78C122.496 34.268 122.092 33.648 121.788 32.92C121.492 32.184 121.26 31.336 121.092 30.376L121.884 30.256ZM102.78 43.312H113.244V44.176H102.78V43.312ZM107.496 41.908H108.444V43.756H107.496V41.908ZM105.144 46.06V48.04H110.916V46.06H105.144ZM104.256 45.268H111.864V48.832H104.256V45.268ZM110.244 49.936L111.048 49.54C111.32 49.804 111.6 50.092 111.888 50.404C112.184 50.716 112.46 51.024 112.716 51.328C112.972 51.624 113.18 51.892 113.34 52.132L112.476 52.6C112.332 52.36 112.132 52.088 111.876 51.784C111.628 51.472 111.36 51.156 111.072 50.836C110.784 50.508 110.508 50.208 110.244 49.936ZM107.508 48.496H108.444V51.916C108.444 52.18 108.408 52.38 108.336 52.516C108.264 52.652 108.12 52.756 107.904 52.828C107.696 52.892 107.416 52.928 107.064 52.936C106.72 52.952 106.284 52.96 105.756 52.96C105.732 52.832 105.688 52.688 105.624 52.528C105.568 52.376 105.508 52.236 105.444 52.108C105.724 52.116 105.984 52.12 106.224 52.12C106.472 52.12 106.684 52.12 106.86 52.12C107.044 52.12 107.172 52.12 107.244 52.12C107.348 52.112 107.416 52.092 107.448 52.06C107.488 52.028 107.508 51.972 107.508 51.892V48.496ZM104.748 49.528L105.66 49.828C105.476 50.14 105.252 50.46 104.988 50.788C104.732 51.116 104.456 51.428 104.16 51.724C103.872 52.02 103.576 52.284 103.272 52.516C103.184 52.42 103.068 52.32 102.924 52.216C102.78 52.12 102.656 52.044 102.552 51.988C102.848 51.772 103.136 51.528 103.416 51.256C103.696 50.984 103.952 50.7 104.184 50.404C104.416 50.1 104.604 49.808 104.748 49.528ZM116.124 48.088V47.356L116.724 47.044H124.488V47.92H117.432C117.192 47.92 116.98 47.928 116.796 47.944C116.62 47.952 116.476 47.968 116.364 47.992C116.252 48.016 116.172 48.048 116.124 48.088ZM120.084 45.28H120.996V51.724C120.996 51.988 120.96 52.192 120.888 52.336C120.824 52.488 120.696 52.604 120.504 52.684C120.32 52.756 120.072 52.804 119.76 52.828C119.456 52.852 119.092 52.864 118.668 52.864C118.652 52.768 118.624 52.664 118.584 52.552C118.544 52.44 118.5 52.328 118.452 52.216C118.412 52.112 118.368 52.016 118.32 51.928C118.664 51.936 118.98 51.94 119.268 51.94C119.556 51.94 119.752 51.936 119.856 51.928C119.944 51.928 120.004 51.912 120.036 51.88C120.068 51.848 120.084 51.792 120.084 51.712V45.28ZM117.084 48.868L117.984 49.108C117.792 49.532 117.568 49.948 117.312 50.356C117.056 50.764 116.78 51.148 116.484 51.508C116.196 51.868 115.908 52.184 115.62 52.456C115.564 52.408 115.488 52.344 115.392 52.264C115.304 52.192 115.212 52.12 115.116 52.048C115.02 51.976 114.932 51.92 114.852 51.88C115.3 51.504 115.724 51.048 116.124 50.512C116.524 49.976 116.844 49.428 117.084 48.868ZM121.992 49.228L122.736 48.856C123.048 49.152 123.368 49.484 123.696 49.852C124.024 50.212 124.328 50.568 124.608 50.92C124.888 51.272 125.112 51.588 125.28 51.868L124.476 52.312C124.316 52.032 124.1 51.712 123.828 51.352C123.556 50.992 123.26 50.628 122.94 50.26C122.62 49.884 122.304 49.54 121.992 49.228ZM114.924 43.516H125.004V44.368H114.924V43.516ZM116.124 48.088C116.108 48.024 116.08 47.936 116.04 47.824C116.008 47.704 115.968 47.584 115.92 47.464C115.88 47.344 115.84 47.244 115.8 47.164C115.936 47.124 116.076 47.024 116.22 46.864C116.364 46.696 116.524 46.48 116.7 46.216C116.796 46.088 116.936 45.88 117.12 45.592C117.304 45.296 117.508 44.948 117.732 44.548C117.964 44.148 118.192 43.716 118.416 43.252C118.648 42.788 118.856 42.32 119.04 41.848L120 42.244C119.704 42.892 119.384 43.536 119.04 44.176C118.696 44.808 118.336 45.412 117.96 45.988C117.592 46.556 117.224 47.072 116.856 47.536V47.56C116.856 47.56 116.82 47.58 116.748 47.62C116.676 47.652 116.592 47.696 116.496 47.752C116.4 47.808 116.312 47.868 116.232 47.932C116.16 47.988 116.124 48.04 116.124 48.088Z" fill="black"/>
<path d="M36 95V81H95V95H36Z" fill="#FFC85A" stroke="#757575" stroke-width="0.945547"/>
<path d="M214.717 209.554H155.431V224.564H50.8067V209.554H1V119.088V103.085H50.8067H214.717V119.088V156.319V209.554Z" fill="#8FC9FF"/>
<path d="M50.8067 209.554V224.564H155.431V209.554H214.717V156.319V119.088M50.8067 209.554H1V119.088M50.8067 209.554V119.088M50.8067 119.088H214.717M50.8067 119.088H1M214.717 119.088V103.085H50.8067H1V119.088" stroke="#757575"/>
<path d="M255 203H267.912H290.956H314V127H282.879H255V203Z" fill="#03AA11" stroke="#757575"/>
<rect x="275" y="203" width="39" height="16" fill="#8FC9FF" stroke="#757575"/>
<path d="M121.732 151.76H132.304V152.564H121.732V151.76ZM124.528 150.92H125.44V153.524H124.528V150.92ZM128.548 150.92H129.46V153.392H128.548V150.92ZM121.696 157.832H132.352V158.648H121.696V157.832ZM126.508 156.908H127.444V161.96H126.508V156.908ZM126.148 158.18L126.892 158.516C126.524 158.98 126.072 159.42 125.536 159.836C125 160.244 124.428 160.612 123.82 160.94C123.212 161.268 122.616 161.532 122.032 161.732C121.984 161.652 121.924 161.564 121.852 161.468C121.78 161.372 121.704 161.276 121.624 161.18C121.544 161.084 121.472 161.008 121.408 160.952C121.848 160.824 122.292 160.664 122.74 160.472C123.196 160.28 123.636 160.064 124.06 159.824C124.484 159.576 124.876 159.316 125.236 159.044C125.596 158.764 125.9 158.476 126.148 158.18ZM127.816 158.228C128.144 158.62 128.564 158.988 129.076 159.332C129.588 159.676 130.144 159.98 130.744 160.244C131.344 160.508 131.944 160.716 132.544 160.868C132.48 160.924 132.408 161 132.328 161.096C132.248 161.192 132.172 161.288 132.1 161.384C132.036 161.48 131.98 161.572 131.932 161.66C131.332 161.468 130.728 161.22 130.12 160.916C129.52 160.604 128.96 160.244 128.44 159.836C127.92 159.428 127.48 158.996 127.12 158.54L127.816 158.228ZM130.732 153.26L131.452 153.968C130.86 154.104 130.196 154.224 129.46 154.328C128.732 154.424 127.96 154.508 127.144 154.58C126.336 154.652 125.516 154.708 124.684 154.748C123.86 154.788 123.064 154.816 122.296 154.832C122.288 154.72 122.26 154.588 122.212 154.436C122.172 154.276 122.132 154.148 122.092 154.052C122.844 154.036 123.624 154.008 124.432 153.968C125.24 153.92 126.032 153.864 126.808 153.8C127.592 153.736 128.32 153.66 128.992 153.572C129.664 153.476 130.244 153.372 130.732 153.26ZM122.632 155.456L123.388 155.132C123.628 155.396 123.852 155.696 124.06 156.032C124.268 156.368 124.416 156.66 124.504 156.908L123.7 157.256C123.62 157 123.48 156.704 123.28 156.368C123.08 156.032 122.864 155.728 122.632 155.456ZM125.944 155.132L126.736 154.88C126.912 155.136 127.072 155.42 127.216 155.732C127.36 156.044 127.456 156.316 127.504 156.548L126.652 156.836C126.612 156.604 126.524 156.332 126.388 156.02C126.26 155.7 126.112 155.404 125.944 155.132ZM130.684 154.688L131.596 155.024C131.348 155.424 131.08 155.836 130.792 156.26C130.512 156.684 130.256 157.044 130.024 157.34L129.328 157.016C129.48 156.816 129.64 156.58 129.808 156.308C129.976 156.028 130.136 155.748 130.288 155.468C130.448 155.18 130.58 154.92 130.684 154.688ZM143.152 156.524H144.052C144.052 156.524 144.048 156.548 144.04 156.596C144.04 156.644 144.04 156.7 144.04 156.764C144.04 156.828 144.036 156.88 144.028 156.92C143.956 157.928 143.88 158.748 143.8 159.38C143.72 160.004 143.632 160.484 143.536 160.82C143.44 161.156 143.328 161.392 143.2 161.528C143.088 161.656 142.964 161.744 142.828 161.792C142.7 161.84 142.54 161.872 142.348 161.888C142.188 161.904 141.968 161.908 141.688 161.9C141.408 161.9 141.112 161.892 140.8 161.876C140.792 161.756 140.764 161.616 140.716 161.456C140.676 161.304 140.62 161.172 140.548 161.06C140.86 161.092 141.148 161.108 141.412 161.108C141.684 161.116 141.88 161.12 142 161.12C142.104 161.12 142.188 161.112 142.252 161.096C142.324 161.08 142.388 161.044 142.444 160.988C142.548 160.884 142.64 160.68 142.72 160.376C142.808 160.064 142.888 159.612 142.96 159.02C143.032 158.42 143.096 157.636 143.152 156.668V156.524ZM141.904 152.072H142.756C142.756 152.072 142.752 152.116 142.744 152.204C142.744 152.292 142.74 152.368 142.732 152.432C142.668 153.104 142.608 153.656 142.552 154.088C142.496 154.512 142.428 154.844 142.348 155.084C142.276 155.316 142.192 155.488 142.096 155.6C142 155.696 141.9 155.768 141.796 155.816C141.692 155.856 141.568 155.88 141.424 155.888C141.312 155.904 141.156 155.912 140.956 155.912C140.756 155.912 140.54 155.908 140.308 155.9C140.3 155.772 140.276 155.632 140.236 155.48C140.196 155.328 140.144 155.196 140.08 155.084C140.288 155.108 140.48 155.124 140.656 155.132C140.832 155.132 140.96 155.132 141.04 155.132C141.12 155.132 141.188 155.128 141.244 155.12C141.3 155.104 141.348 155.072 141.388 155.024C141.46 154.952 141.524 154.816 141.58 154.616C141.644 154.408 141.7 154.112 141.748 153.728C141.796 153.336 141.848 152.824 141.904 152.192V152.072ZM138.34 150.872L139.372 151.016C139.244 151.296 139.1 151.576 138.94 151.856C138.78 152.128 138.636 152.36 138.508 152.552L137.728 152.384C137.832 152.168 137.944 151.916 138.064 151.628C138.184 151.34 138.276 151.088 138.34 150.872ZM136.948 153.992L137.44 153.452C137.712 153.564 138.004 153.696 138.316 153.848C138.628 154 138.924 154.156 139.204 154.316C139.492 154.468 139.728 154.608 139.912 154.736L139.396 155.348C139.22 155.228 138.992 155.088 138.712 154.928C138.432 154.76 138.136 154.596 137.824 154.436C137.52 154.268 137.228 154.12 136.948 153.992ZM133.6 158.756H141.712V159.56H133.6V158.756ZM142.084 152.072V152.9H136.096V156.524H143.536V157.34H135.22V152.072H142.084ZM125.14 171.56H125.932C125.932 171.56 125.932 171.608 125.932 171.704C125.932 171.8 125.928 171.876 125.92 171.932C125.856 172.972 125.788 173.808 125.716 174.44C125.652 175.072 125.576 175.556 125.488 175.892C125.4 176.228 125.296 176.464 125.176 176.6C125.072 176.72 124.96 176.8 124.84 176.84C124.72 176.888 124.572 176.92 124.396 176.936C124.236 176.952 124.024 176.96 123.76 176.96C123.504 176.96 123.228 176.948 122.932 176.924C122.924 176.82 122.9 176.692 122.86 176.54C122.82 176.396 122.768 176.276 122.704 176.18C123 176.204 123.272 176.216 123.52 176.216C123.776 176.224 123.96 176.228 124.072 176.228C124.168 176.228 124.248 176.22 124.312 176.204C124.384 176.196 124.444 176.16 124.492 176.096C124.596 176 124.684 175.8 124.756 175.496C124.828 175.184 124.896 174.724 124.96 174.116C125.024 173.5 125.084 172.696 125.14 171.704V171.56ZM121.42 174.26C121.828 174.172 122.308 174.06 122.86 173.924C123.42 173.78 123.992 173.628 124.576 173.468L124.66 174.164C124.124 174.316 123.592 174.468 123.064 174.62C122.536 174.764 122.048 174.896 121.6 175.016L121.42 174.26ZM121.744 166.244H124.912V167.036H121.744V166.244ZM124.672 166.244H125.464C125.432 166.684 125.396 167.152 125.356 167.648C125.316 168.144 125.272 168.64 125.224 169.136C125.184 169.632 125.14 170.104 125.092 170.552C125.052 170.992 125.008 171.38 124.96 171.716L124.168 171.764C124.216 171.412 124.264 171.012 124.312 170.564C124.368 170.108 124.416 169.632 124.456 169.136C124.504 168.632 124.544 168.132 124.576 167.636C124.616 167.14 124.648 166.676 124.672 166.244ZM122.212 168.164L123.004 168.212C122.972 168.652 122.932 169.124 122.884 169.628C122.844 170.132 122.8 170.62 122.752 171.092C122.704 171.556 122.656 171.96 122.608 172.304H121.84C121.888 171.952 121.936 171.536 121.984 171.056C122.032 170.576 122.076 170.084 122.116 169.58C122.156 169.068 122.188 168.596 122.212 168.164ZM122.104 171.572H125.224V172.304H122.104V171.572ZM126.16 166.568H131.44V167.384H126.16V166.568ZM131.272 166.568H131.428L131.584 166.532L132.136 166.82C131.856 167.404 131.5 167.936 131.068 168.416C130.644 168.896 130.164 169.328 129.628 169.712C129.092 170.096 128.528 170.432 127.936 170.72C127.352 171 126.764 171.232 126.172 171.416C126.124 171.304 126.052 171.176 125.956 171.032C125.86 170.888 125.768 170.776 125.68 170.696C126.24 170.544 126.804 170.344 127.372 170.096C127.94 169.84 128.476 169.544 128.98 169.208C129.484 168.864 129.932 168.484 130.324 168.068C130.724 167.652 131.04 167.2 131.272 166.712V166.568ZM127.336 166.928C127.656 167.544 128.08 168.104 128.608 168.608C129.136 169.112 129.744 169.544 130.432 169.904C131.128 170.256 131.876 170.528 132.676 170.72C132.612 170.776 132.544 170.848 132.472 170.936C132.4 171.024 132.332 171.116 132.268 171.212C132.204 171.3 132.152 171.384 132.112 171.464C131.296 171.232 130.536 170.916 129.832 170.516C129.136 170.116 128.516 169.636 127.972 169.076C127.428 168.508 126.984 167.876 126.64 167.18L127.336 166.928ZM126.46 172.112H131.848V172.928H126.46V172.112ZM126.004 174.176H132.4V174.992H126.004V174.176ZM128.752 171.056H129.604V176.936H128.752V171.056ZM133.684 168.296H138.316V169.148H133.684V168.296ZM135.592 166.076H136.444V168.728H135.592V166.076ZM141.076 168.404H144.52V169.268H141.076V168.404ZM139.012 175.532H143.548V176.372H139.012V175.532ZM140.62 165.908H141.544V172.028H140.62V165.908ZM138.604 171.656H144.016V176.9H143.104V172.508H139.48V176.948H138.604V171.656ZM133.456 174.704C133.872 174.624 134.348 174.528 134.884 174.416C135.42 174.296 135.992 174.168 136.6 174.032C137.208 173.896 137.812 173.76 138.412 173.624L138.496 174.464C137.928 174.592 137.356 174.728 136.78 174.872C136.204 175.008 135.648 175.14 135.112 175.268C134.584 175.388 134.1 175.5 133.66 175.604L133.456 174.704ZM134.152 169.772L134.884 169.64C134.988 170.08 135.076 170.552 135.148 171.056C135.228 171.56 135.292 172.056 135.34 172.544C135.388 173.024 135.412 173.456 135.412 173.84L134.632 173.984C134.632 173.6 134.608 173.168 134.56 172.688C134.52 172.2 134.464 171.704 134.392 171.2C134.32 170.696 134.24 170.22 134.152 169.772ZM136.948 169.508L137.824 169.676C137.76 170.18 137.68 170.716 137.584 171.284C137.496 171.844 137.4 172.388 137.296 172.916C137.2 173.444 137.104 173.904 137.008 174.296L136.252 174.128C136.324 173.824 136.392 173.48 136.456 173.096C136.528 172.712 136.592 172.312 136.648 171.896C136.712 171.472 136.768 171.056 136.816 170.648C136.872 170.24 136.916 169.86 136.948 169.508Z" fill="black"/>
<path d="M272.152 152.068H281.824V157.708H280.9V152.944H273.052V157.768H272.152V152.068ZM272.632 156.136H281.44V157.024H272.632V156.136ZM276.496 149.92H277.444V160.948H276.496V149.92ZM285.904 152.32H292.072V153.124H285.904V152.32ZM286.24 154.84H291.784V155.62H286.24V154.84ZM285.736 157.648H292.324V158.416H285.736V157.648ZM288.508 152.572H289.36V158.068H288.508V152.572ZM290.104 156.16L290.692 155.836C290.924 156.028 291.152 156.248 291.376 156.496C291.608 156.744 291.788 156.964 291.916 157.156L291.292 157.528C291.172 157.336 291 157.112 290.776 156.856C290.552 156.592 290.328 156.36 290.104 156.16ZM284.032 150.46H293.968V160.96H293.02V151.3H284.944V160.96H284.032V150.46ZM284.512 159.52H293.452V160.36H284.512V159.52ZM272.02 166.756H277.348V175.024H276.52V167.548H272.812V175.192H272.02V166.756ZM272.392 170.08H276.808V170.86H272.392V170.08ZM272.416 173.62H276.784V174.4H272.416V173.62ZM274.24 164.932H275.128V167.2H275.08V174.16H274.288V167.2H274.24V164.932ZM278.512 165.568H281.656V166.42H279.304V175.948H278.512V165.568ZM281.452 165.568H281.62L281.764 165.532L282.388 165.928C282.172 166.48 281.928 167.076 281.656 167.716C281.392 168.356 281.132 168.956 280.876 169.516C281.42 170.084 281.78 170.608 281.956 171.088C282.14 171.56 282.232 172.004 282.232 172.42C282.232 172.772 282.188 173.088 282.1 173.368C282.02 173.64 281.876 173.844 281.668 173.98C281.572 174.044 281.46 174.096 281.332 174.136C281.204 174.176 281.068 174.208 280.924 174.232C280.772 174.248 280.6 174.256 280.408 174.256C280.224 174.256 280.04 174.252 279.856 174.244C279.848 174.124 279.824 173.984 279.784 173.824C279.744 173.656 279.684 173.512 279.604 173.392C279.788 173.408 279.964 173.42 280.132 173.428C280.3 173.428 280.444 173.424 280.564 173.416C280.66 173.408 280.752 173.396 280.84 173.38C280.928 173.356 281.004 173.328 281.068 173.296C281.196 173.216 281.284 173.092 281.332 172.924C281.38 172.748 281.4 172.556 281.392 172.348C281.392 171.972 281.292 171.56 281.092 171.112C280.9 170.664 280.528 170.168 279.976 169.624C280.12 169.312 280.26 168.984 280.396 168.64C280.54 168.296 280.676 167.956 280.804 167.62C280.932 167.276 281.052 166.952 281.164 166.648C281.276 166.336 281.372 166.064 281.452 165.832V165.568ZM283.612 165.772H289.132V166.636H283.612V165.772ZM286.564 169.264H288.676V170.128H286.564V169.264ZM286.156 166.24H287.032V173.812H286.156V166.24ZM284.116 168.46H284.944V174.16H284.116V168.46ZM283.396 173.944C283.868 173.856 284.416 173.748 285.04 173.62C285.664 173.484 286.324 173.34 287.02 173.188C287.724 173.028 288.42 172.868 289.108 172.708L289.192 173.536C288.528 173.696 287.86 173.856 287.188 174.016C286.516 174.176 285.868 174.328 285.244 174.472C284.628 174.608 284.072 174.736 283.576 174.856L283.396 173.944ZM289.948 167.152H294.508V167.992H289.948V167.152ZM290.356 164.92L291.256 165.064C291.112 165.816 290.928 166.544 290.704 167.248C290.488 167.944 290.244 168.596 289.972 169.204C289.7 169.804 289.392 170.336 289.048 170.8C289 170.736 288.932 170.668 288.844 170.596C288.756 170.516 288.664 170.44 288.568 170.368C288.472 170.296 288.392 170.236 288.328 170.188C288.656 169.772 288.948 169.284 289.204 168.724C289.468 168.164 289.696 167.56 289.888 166.912C290.08 166.264 290.236 165.6 290.356 164.92ZM292.84 167.596L293.74 167.692C293.54 169.068 293.248 170.28 292.864 171.328C292.48 172.376 291.964 173.284 291.316 174.052C290.676 174.812 289.856 175.456 288.856 175.984C288.824 175.912 288.776 175.824 288.712 175.72C288.648 175.624 288.58 175.528 288.508 175.432C288.444 175.336 288.38 175.26 288.316 175.204C289.26 174.74 290.036 174.16 290.644 173.464C291.252 172.76 291.728 171.924 292.072 170.956C292.416 169.98 292.672 168.86 292.84 167.596ZM290.332 167.932C290.524 169.044 290.8 170.08 291.16 171.04C291.528 172 291.992 172.84 292.552 173.56C293.12 174.272 293.812 174.82 294.628 175.204C294.564 175.26 294.492 175.332 294.412 175.42C294.332 175.508 294.256 175.6 294.184 175.696C294.112 175.792 294.052 175.88 294.004 175.96C293.156 175.512 292.44 174.904 291.856 174.136C291.272 173.368 290.792 172.472 290.416 171.448C290.048 170.416 289.752 169.292 289.528 168.076L290.332 167.932Z" fill="black"/>
<rect x="255" y="81" width="28" height="14" fill="#C3C3C3" stroke="#757575"/>
<rect x="95" y="81" width="120" height="14" fill="#8FC9FF" stroke="#757575"/>
<rect x="283" y="81" width="31" height="46" fill="#FF99C4" stroke="#757575"/>
<path d="M296.808 91.088L297.492 91.784C297.044 91.936 296.532 92.08 295.956 92.216C295.388 92.352 294.796 92.472 294.18 92.576C293.572 92.68 292.98 92.772 292.404 92.852C292.388 92.748 292.352 92.628 292.296 92.492C292.24 92.356 292.184 92.244 292.128 92.156C292.688 92.068 293.256 91.968 293.832 91.856C294.416 91.744 294.968 91.624 295.488 91.496C296.008 91.36 296.448 91.224 296.808 91.088ZM291.828 91.904L292.944 92.108C292.936 92.188 292.856 92.24 292.704 92.264V95.888C292.704 96.328 292.684 96.808 292.644 97.328C292.612 97.84 292.544 98.364 292.44 98.9C292.336 99.436 292.176 99.96 291.96 100.472C291.752 100.976 291.468 101.44 291.108 101.864C291.068 101.8 291.008 101.728 290.928 101.648C290.856 101.568 290.776 101.492 290.688 101.42C290.608 101.348 290.528 101.296 290.448 101.264C290.864 100.744 291.168 100.172 291.36 99.548C291.56 98.924 291.688 98.296 291.744 97.664C291.8 97.032 291.828 96.436 291.828 95.876V91.904ZM293.028 97.712L293.4 97.028C293.784 97.156 294.192 97.304 294.624 97.472C295.056 97.64 295.484 97.816 295.908 98C296.34 98.176 296.74 98.356 297.108 98.54C297.476 98.716 297.792 98.884 298.056 99.044L297.66 99.824C297.404 99.664 297.092 99.492 296.724 99.308C296.364 99.124 295.972 98.936 295.548 98.744C295.132 98.544 294.704 98.36 294.264 98.192C293.832 98.016 293.42 97.856 293.028 97.712ZM292.356 94.88H298.044V95.72H292.356V94.88ZM295.056 95.408H295.92V101.948H295.056V95.408ZM286.836 97.28C287.196 97.192 287.604 97.084 288.06 96.956C288.516 96.828 288.996 96.692 289.5 96.548C290.012 96.396 290.524 96.244 291.036 96.092L291.144 96.932C290.44 97.148 289.732 97.364 289.02 97.58C288.308 97.796 287.668 97.988 287.1 98.156L286.836 97.28ZM287.028 93.344H291.012V94.196H287.028V93.344ZM288.744 90.92H289.62V100.892C289.62 101.148 289.588 101.344 289.524 101.48C289.468 101.616 289.36 101.72 289.2 101.792C289.04 101.856 288.832 101.9 288.576 101.924C288.32 101.948 287.992 101.956 287.592 101.948C287.576 101.836 287.54 101.7 287.484 101.54C287.428 101.38 287.372 101.24 287.316 101.12C287.588 101.128 287.836 101.132 288.06 101.132C288.284 101.132 288.436 101.132 288.516 101.132C288.596 101.124 288.652 101.104 288.684 101.072C288.724 101.04 288.744 100.984 288.744 100.904V90.92ZM300.54 90.92H301.44V101.948H300.54V90.92ZM299.46 93.236L300.144 93.332C300.128 93.66 300.092 94.02 300.036 94.412C299.988 94.796 299.92 95.18 299.832 95.564C299.752 95.94 299.656 96.276 299.544 96.572L298.836 96.32C298.948 96.056 299.044 95.744 299.124 95.384C299.212 95.024 299.284 94.656 299.34 94.28C299.396 93.904 299.436 93.556 299.46 93.236ZM301.464 93.128L302.1 92.852C302.228 93.084 302.352 93.336 302.472 93.608C302.6 93.872 302.712 94.128 302.808 94.376C302.904 94.624 302.976 94.844 303.024 95.036L302.352 95.372C302.304 95.18 302.232 94.956 302.136 94.7C302.04 94.436 301.932 94.168 301.812 93.896C301.7 93.616 301.584 93.36 301.464 93.128ZM303.108 92.828H309.048V96.92H308.16V93.68H303.108V92.828ZM302.46 96.428H310.08V97.304H302.46V96.428ZM306.492 96.608C306.684 97.304 306.948 97.956 307.284 98.564C307.62 99.164 308.028 99.688 308.508 100.136C308.996 100.584 309.556 100.924 310.188 101.156C310.116 101.22 310.036 101.3 309.948 101.396C309.868 101.492 309.792 101.592 309.72 101.696C309.648 101.808 309.588 101.908 309.54 101.996C308.876 101.7 308.296 101.3 307.8 100.796C307.304 100.284 306.884 99.688 306.54 99.008C306.196 98.328 305.916 97.588 305.7 96.788L306.492 96.608ZM305.46 90.92H306.36V94.916C306.36 95.388 306.336 95.876 306.288 96.38C306.248 96.884 306.16 97.392 306.024 97.904C305.896 98.408 305.7 98.904 305.436 99.392C305.172 99.88 304.816 100.348 304.368 100.796C303.928 101.236 303.372 101.64 302.7 102.008C302.66 101.936 302.604 101.856 302.532 101.768C302.46 101.688 302.38 101.604 302.292 101.516C302.212 101.436 302.136 101.368 302.064 101.312C302.72 100.976 303.256 100.612 303.672 100.22C304.096 99.82 304.428 99.4 304.668 98.96C304.916 98.512 305.092 98.06 305.196 97.604C305.308 97.14 305.38 96.68 305.412 96.224C305.444 95.768 305.46 95.332 305.46 94.916V90.92ZM291.108 111.188H297.156V111.92H291.108V111.188ZM296.892 111.188H297.708C297.708 111.188 297.704 111.228 297.696 111.308C297.696 111.388 297.692 111.456 297.684 111.512C297.636 112.24 297.58 112.776 297.516 113.12C297.46 113.464 297.372 113.7 297.252 113.828C297.164 113.916 297.068 113.984 296.964 114.032C296.868 114.072 296.744 114.096 296.592 114.104C296.472 114.12 296.308 114.128 296.1 114.128C295.892 114.12 295.672 114.112 295.44 114.104C295.432 113.984 295.408 113.856 295.368 113.72C295.328 113.576 295.276 113.452 295.212 113.348C295.436 113.364 295.644 113.376 295.836 113.384C296.028 113.392 296.164 113.396 296.244 113.396C296.412 113.396 296.528 113.364 296.592 113.3C296.656 113.22 296.712 113.036 296.76 112.748C296.808 112.452 296.852 111.968 296.892 111.296V111.188ZM290.544 107.468H297.228V110.084H291.42V109.328H296.448V108.224H290.544V107.468ZM290.988 109.328H291.804C291.772 109.624 291.732 109.928 291.684 110.24C291.636 110.552 291.588 110.856 291.54 111.152C291.492 111.44 291.44 111.696 291.384 111.92H290.604C290.66 111.68 290.712 111.416 290.76 111.128C290.808 110.832 290.852 110.528 290.892 110.216C290.932 109.904 290.964 109.608 290.988 109.328ZM291.684 106.196L292.404 105.884C292.588 106.076 292.76 106.3 292.92 106.556C293.08 106.804 293.196 107.02 293.268 107.204L292.5 107.576C292.436 107.392 292.324 107.168 292.164 106.904C292.012 106.64 291.852 106.404 291.684 106.196ZM295.548 105.908L296.436 106.148C296.244 106.46 296.044 106.768 295.836 107.072C295.636 107.368 295.444 107.628 295.26 107.852L294.516 107.624C294.636 107.464 294.76 107.288 294.888 107.096C295.024 106.896 295.148 106.692 295.26 106.484C295.372 106.268 295.468 106.076 295.548 105.908ZM293.364 111.524L294.144 111.776C293.776 112.368 293.288 112.908 292.68 113.396C292.08 113.876 291.416 114.276 290.688 114.596C290.648 114.54 290.592 114.476 290.52 114.404C290.456 114.324 290.388 114.252 290.316 114.188C290.244 114.116 290.176 114.056 290.112 114.008C290.816 113.72 291.46 113.36 292.044 112.928C292.628 112.488 293.068 112.02 293.364 111.524ZM293.58 107.792H294.468V115.172H293.58V107.792ZM287.472 106.808L288.24 106.436C288.424 106.652 288.612 106.888 288.804 107.144C289.004 107.392 289.184 107.64 289.344 107.888C289.512 108.128 289.648 108.348 289.752 108.548L288.936 108.968C288.84 108.776 288.712 108.556 288.552 108.308C288.392 108.052 288.216 107.792 288.024 107.528C287.84 107.264 287.656 107.024 287.472 106.808ZM289.572 110.408V114.8H288.708V111.284H287.1V110.408H289.572ZM289.128 114.38C289.32 114.38 289.504 114.456 289.68 114.608C289.864 114.752 290.124 114.924 290.46 115.124C290.852 115.364 291.308 115.52 291.828 115.592C292.348 115.656 292.948 115.688 293.628 115.688C293.988 115.688 294.364 115.684 294.756 115.676C295.156 115.66 295.552 115.644 295.944 115.628C296.344 115.604 296.724 115.58 297.084 115.556C297.452 115.524 297.788 115.488 298.092 115.448C298.052 115.528 298.012 115.628 297.972 115.748C297.932 115.86 297.896 115.976 297.864 116.096C297.84 116.216 297.824 116.32 297.816 116.408C297.592 116.424 297.304 116.436 296.952 116.444C296.6 116.46 296.22 116.476 295.812 116.492C295.404 116.508 295.004 116.516 294.612 116.516C294.228 116.524 293.892 116.528 293.604 116.528C292.86 116.528 292.22 116.484 291.684 116.396C291.156 116.316 290.68 116.148 290.256 115.892C290.008 115.74 289.784 115.584 289.584 115.424C289.392 115.264 289.232 115.184 289.104 115.184C288.984 115.184 288.848 115.256 288.696 115.4C288.544 115.536 288.38 115.72 288.204 115.952C288.036 116.176 287.864 116.42 287.688 116.684L287.076 115.844C287.452 115.412 287.816 115.06 288.168 114.788C288.528 114.516 288.848 114.38 289.128 114.38ZM307.008 107.936L307.884 108.236C307.404 109.148 306.848 110.016 306.216 110.84C305.592 111.656 304.92 112.408 304.2 113.096C303.488 113.776 302.748 114.376 301.98 114.896C301.924 114.832 301.852 114.756 301.764 114.668C301.684 114.58 301.596 114.492 301.5 114.404C301.412 114.316 301.332 114.248 301.26 114.2C302.036 113.728 302.78 113.168 303.492 112.52C304.204 111.872 304.856 111.16 305.448 110.384C306.048 109.6 306.568 108.784 307.008 107.936ZM301.752 109.4L302.388 108.836C302.932 109.172 303.492 109.548 304.068 109.964C304.652 110.38 305.22 110.808 305.772 111.248C306.324 111.688 306.828 112.124 307.284 112.556C307.74 112.98 308.124 113.38 308.436 113.756L307.716 114.44C307.42 114.064 307.048 113.66 306.6 113.228C306.16 112.788 305.672 112.344 305.136 111.896C304.6 111.44 304.04 111 303.456 110.576C302.88 110.152 302.312 109.76 301.752 109.4ZM299.628 106.652H309.648V107.528H300.528V116.984H299.628V106.652ZM300.204 115.424H309.924V116.288H300.204V115.424Z" fill="black"/>
<path d="M234.707 204.293C234.317 203.902 233.683 203.902 233.293 204.293L226.929 210.657C226.538 211.047 226.538 211.681 226.929 212.071C227.319 212.462 227.953 212.462 228.343 212.071L234 206.414L239.657 212.071C240.047 212.462 240.681 212.462 241.071 212.071C241.462 211.681 241.462 211.047 241.071 210.657L234.707 204.293ZM234 225H235V205H234H233V225H234Z" fill="black"/>
<path d="M226 16V1H262V16H226Z" fill="#C3C3C3" stroke="#757575"/>
<path d="M301 16H314V63H301V16Z" fill="#C3C3C3" stroke="#757575"/>
<path d="M192 63V16H262V63H192Z" fill="#C3C3C3" stroke="#757575"/>
<path d="M219.832 27.448H225.46V28.24H219.832V27.448ZM222.196 27.844L223.168 27.976C223.04 28.32 222.908 28.668 222.772 29.02C222.644 29.372 222.52 29.672 222.4 29.92L221.644 29.764C221.748 29.492 221.852 29.176 221.956 28.816C222.06 28.448 222.14 28.124 222.196 27.844ZM222.148 31.144H222.976V33.556C222.976 33.924 222.944 34.312 222.88 34.72C222.816 35.12 222.684 35.52 222.484 35.92C222.284 36.312 221.98 36.684 221.572 37.036C221.172 37.396 220.64 37.72 219.976 38.008C219.912 37.92 219.824 37.812 219.712 37.684C219.608 37.556 219.508 37.452 219.412 37.372C220.036 37.132 220.528 36.856 220.888 36.544C221.256 36.232 221.528 35.904 221.704 35.56C221.888 35.216 222.008 34.872 222.064 34.528C222.12 34.176 222.148 33.852 222.148 33.556V31.144ZM222.448 35.656L223.06 35.164C223.34 35.38 223.632 35.62 223.936 35.884C224.24 36.148 224.524 36.412 224.788 36.676C225.06 36.932 225.28 37.164 225.448 37.372L224.812 37.948C224.652 37.732 224.44 37.488 224.176 37.216C223.912 36.952 223.628 36.684 223.324 36.412C223.02 36.132 222.728 35.88 222.448 35.656ZM220.156 29.464H225.004V35.176H224.152V30.292H220.972V35.2H220.156V29.464ZM218.404 27.316H219.196V37.636H218.404V27.316ZM216.772 28.216H217.492V36.244H216.772V28.216ZM215.104 27.352H215.872V32.2C215.872 32.928 215.852 33.632 215.812 34.312C215.78 34.984 215.7 35.624 215.572 36.232C215.452 36.832 215.26 37.404 214.996 37.948C214.956 37.892 214.896 37.828 214.816 37.756C214.736 37.684 214.656 37.616 214.576 37.552C214.504 37.488 214.432 37.436 214.36 37.396C214.696 36.66 214.904 35.856 214.984 34.984C215.064 34.104 215.104 33.176 215.104 32.2V27.352ZM227.68 31.348H236.356V32.224H227.68V31.348ZM227.08 28.672H236.896V29.572H227.08V28.672ZM226.636 34.168H237.376V35.068H226.636V34.168ZM231.52 26.908H232.468V37.936H231.52V26.908ZM216.04 41.92H216.94V52.948H216.04V41.92ZM214.96 44.236L215.644 44.332C215.628 44.66 215.592 45.02 215.536 45.412C215.488 45.796 215.42 46.18 215.332 46.564C215.252 46.94 215.156 47.276 215.044 47.572L214.336 47.32C214.448 47.056 214.544 46.744 214.624 46.384C214.712 46.024 214.784 45.656 214.84 45.28C214.896 44.904 214.936 44.556 214.96 44.236ZM216.964 44.128L217.6 43.852C217.728 44.084 217.852 44.336 217.972 44.608C218.1 44.872 218.212 45.128 218.308 45.376C218.404 45.624 218.476 45.844 218.524 46.036L217.852 46.372C217.804 46.18 217.732 45.956 217.636 45.7C217.54 45.436 217.432 45.168 217.312 44.896C217.2 44.616 217.084 44.36 216.964 44.128ZM218.608 43.828H224.548V47.92H223.66V44.68H218.608V43.828ZM217.96 47.428H225.58V48.304H217.96V47.428ZM221.992 47.608C222.184 48.304 222.448 48.956 222.784 49.564C223.12 50.164 223.528 50.688 224.008 51.136C224.496 51.584 225.056 51.924 225.688 52.156C225.616 52.22 225.536 52.3 225.448 52.396C225.368 52.492 225.292 52.592 225.22 52.696C225.148 52.808 225.088 52.908 225.04 52.996C224.376 52.7 223.796 52.3 223.3 51.796C222.804 51.284 222.384 50.688 222.04 50.008C221.696 49.328 221.416 48.588 221.2 47.788L221.992 47.608ZM220.96 41.92H221.86V45.916C221.86 46.388 221.836 46.876 221.788 47.38C221.748 47.884 221.66 48.392 221.524 48.904C221.396 49.408 221.2 49.904 220.936 50.392C220.672 50.88 220.316 51.348 219.868 51.796C219.428 52.236 218.872 52.64 218.2 53.008C218.16 52.936 218.104 52.856 218.032 52.768C217.96 52.688 217.88 52.604 217.792 52.516C217.712 52.436 217.636 52.368 217.564 52.312C218.22 51.976 218.756 51.612 219.172 51.22C219.596 50.82 219.928 50.4 220.168 49.96C220.416 49.512 220.592 49.06 220.696 48.604C220.808 48.14 220.88 47.68 220.912 47.224C220.944 46.768 220.96 46.332 220.96 45.916V41.92ZM230.608 47.188H236.656V47.92H230.608V47.188ZM236.392 47.188H237.208C237.208 47.188 237.204 47.228 237.196 47.308C237.196 47.388 237.192 47.456 237.184 47.512C237.136 48.24 237.08 48.776 237.016 49.12C236.96 49.464 236.872 49.7 236.752 49.828C236.664 49.916 236.568 49.984 236.464 50.032C236.368 50.072 236.244 50.096 236.092 50.104C235.972 50.12 235.808 50.128 235.6 50.128C235.392 50.12 235.172 50.112 234.94 50.104C234.932 49.984 234.908 49.856 234.868 49.72C234.828 49.576 234.776 49.452 234.712 49.348C234.936 49.364 235.144 49.376 235.336 49.384C235.528 49.392 235.664 49.396 235.744 49.396C235.912 49.396 236.028 49.364 236.092 49.3C236.156 49.22 236.212 49.036 236.26 48.748C236.308 48.452 236.352 47.968 236.392 47.296V47.188ZM230.044 43.468H236.728V46.084H230.92V45.328H235.948V44.224H230.044V43.468ZM230.488 45.328H231.304C231.272 45.624 231.232 45.928 231.184 46.24C231.136 46.552 231.088 46.856 231.04 47.152C230.992 47.44 230.94 47.696 230.884 47.92H230.104C230.16 47.68 230.212 47.416 230.26 47.128C230.308 46.832 230.352 46.528 230.392 46.216C230.432 45.904 230.464 45.608 230.488 45.328ZM231.184 42.196L231.904 41.884C232.088 42.076 232.26 42.3 232.42 42.556C232.58 42.804 232.696 43.02 232.768 43.204L232 43.576C231.936 43.392 231.824 43.168 231.664 42.904C231.512 42.64 231.352 42.404 231.184 42.196ZM235.048 41.908L235.936 42.148C235.744 42.46 235.544 42.768 235.336 43.072C235.136 43.368 234.944 43.628 234.76 43.852L234.016 43.624C234.136 43.464 234.26 43.288 234.388 43.096C234.524 42.896 234.648 42.692 234.76 42.484C234.872 42.268 234.968 42.076 235.048 41.908ZM232.864 47.524L233.644 47.776C233.276 48.368 232.788 48.908 232.18 49.396C231.58 49.876 230.916 50.276 230.188 50.596C230.148 50.54 230.092 50.476 230.02 50.404C229.956 50.324 229.888 50.252 229.816 50.188C229.744 50.116 229.676 50.056 229.612 50.008C230.316 49.72 230.96 49.36 231.544 48.928C232.128 48.488 232.568 48.02 232.864 47.524ZM233.08 43.792H233.968V51.172H233.08V43.792ZM226.972 42.808L227.74 42.436C227.924 42.652 228.112 42.888 228.304 43.144C228.504 43.392 228.684 43.64 228.844 43.888C229.012 44.128 229.148 44.348 229.252 44.548L228.436 44.968C228.34 44.776 228.212 44.556 228.052 44.308C227.892 44.052 227.716 43.792 227.524 43.528C227.34 43.264 227.156 43.024 226.972 42.808ZM229.072 46.408V50.8H228.208V47.284H226.6V46.408H229.072ZM228.628 50.38C228.82 50.38 229.004 50.456 229.18 50.608C229.364 50.752 229.624 50.924 229.96 51.124C230.352 51.364 230.808 51.52 231.328 51.592C231.848 51.656 232.448 51.688 233.128 51.688C233.488 51.688 233.864 51.684 234.256 51.676C234.656 51.66 235.052 51.644 235.444 51.628C235.844 51.604 236.224 51.58 236.584 51.556C236.952 51.524 237.288 51.488 237.592 51.448C237.552 51.528 237.512 51.628 237.472 51.748C237.432 51.86 237.396 51.976 237.364 52.096C237.34 52.216 237.324 52.32 237.316 52.408C237.092 52.424 236.804 52.436 236.452 52.444C236.1 52.46 235.72 52.476 235.312 52.492C234.904 52.508 234.504 52.516 234.112 52.516C233.728 52.524 233.392 52.528 233.104 52.528C232.36 52.528 231.72 52.484 231.184 52.396C230.656 52.316 230.18 52.148 229.756 51.892C229.508 51.74 229.284 51.584 229.084 51.424C228.892 51.264 228.732 51.184 228.604 51.184C228.484 51.184 228.348 51.256 228.196 51.4C228.044 51.536 227.88 51.72 227.704 51.952C227.536 52.176 227.364 52.42 227.188 52.684L226.576 51.844C226.952 51.412 227.316 51.06 227.668 50.788C228.028 50.516 228.348 50.38 228.628 50.38Z" fill="black"/>
<path d="M282.293 21.7071C282.683 22.0976 283.317 22.0976 283.707 21.7071L290.071 15.3431C290.462 14.9526 290.462 14.3195 290.071 13.9289C289.681 13.5384 289.047 13.5384 288.657 13.9289L283 19.5858L277.343 13.9289C276.953 13.5384 276.319 13.5384 275.929 13.9289C275.538 14.3195 275.538 14.9526 275.929 15.3431L282.293 21.7071ZM283 1L282 1L282 21L283 21L284 21L284 1L283 1Z" fill="black"/>
</svg>
