<svg width="315" height="226" viewBox="0 0 315 226" fill="none" xmlns="http://www.w3.org/2000/svg">
<path d="M35.895 63V16H148.895V63H35.895Z" fill="#FFC85A" stroke="#757575" stroke-width="0.945547"/>
<path d="M86.06 31.504H89.168V32.332H86.06V31.504ZM86.696 28.816H90.68V29.668H86.696V28.816ZM90.308 28.816H91.172C91.172 28.816 91.172 28.848 91.172 28.912C91.172 28.968 91.172 29.036 91.172 29.116C91.172 29.188 91.172 29.244 91.172 29.284C91.132 30.7 91.092 31.896 91.052 32.872C91.012 33.848 90.964 34.648 90.908 35.272C90.86 35.896 90.796 36.38 90.716 36.724C90.636 37.06 90.54 37.3 90.428 37.444C90.3 37.62 90.16 37.74 90.008 37.804C89.864 37.868 89.692 37.912 89.492 37.936C89.292 37.96 89.028 37.968 88.7 37.96C88.38 37.952 88.048 37.94 87.704 37.924C87.696 37.796 87.668 37.648 87.62 37.48C87.572 37.32 87.508 37.18 87.428 37.06C87.804 37.092 88.148 37.108 88.46 37.108C88.78 37.116 89.008 37.12 89.144 37.12C89.264 37.12 89.36 37.108 89.432 37.084C89.504 37.06 89.572 37.008 89.636 36.928C89.732 36.824 89.812 36.608 89.876 36.28C89.948 35.952 90.008 35.484 90.056 34.876C90.112 34.26 90.156 33.472 90.188 32.512C90.228 31.552 90.268 30.388 90.308 29.02V28.816ZM87.02 26.932L87.932 27.124C87.804 27.644 87.648 28.156 87.464 28.66C87.28 29.164 87.076 29.636 86.852 30.076C86.636 30.516 86.408 30.904 86.168 31.24C86.112 31.192 86.036 31.136 85.94 31.072C85.844 31 85.744 30.932 85.64 30.868C85.536 30.796 85.444 30.74 85.364 30.7C85.732 30.244 86.056 29.68 86.336 29.008C86.624 28.328 86.852 27.636 87.02 26.932ZM85.712 34.72C86.16 34.608 86.696 34.464 87.32 34.288C87.944 34.104 88.584 33.92 89.24 33.736L89.36 34.516C88.784 34.708 88.204 34.896 87.62 35.08C87.044 35.256 86.516 35.416 86.036 35.56L85.712 34.72ZM81.524 34.6H84.656V35.332H81.524V34.6ZM80.66 28.264H85.496V29.056H80.66V28.264ZM80.468 30.976H85.628V31.768H80.468V30.976ZM81.584 32.692H85.136V37.372H81.584V36.616H84.284V33.436H81.584V32.692ZM82.604 26.92H83.492V28.78H82.604V26.92ZM81.296 29.188L82.04 29.032C82.152 29.32 82.248 29.636 82.328 29.98C82.416 30.324 82.472 30.624 82.496 30.88L81.716 31.048C81.7 30.8 81.652 30.5 81.572 30.148C81.492 29.796 81.4 29.476 81.296 29.188ZM84.056 28.996L84.872 29.2C84.768 29.52 84.66 29.852 84.548 30.196C84.436 30.532 84.332 30.82 84.236 31.06L83.552 30.868C83.608 30.7 83.668 30.508 83.732 30.292C83.796 30.068 83.856 29.84 83.912 29.608C83.976 29.376 84.024 29.172 84.056 28.996ZM81.14 32.692H81.968V37.924H81.14V32.692ZM95.72 29.752H103.232V30.604H95.72V29.752ZM95.192 32.5V36.016H94.316V33.34H92.612V32.5H95.192ZM95.192 35.524C95.48 35.964 95.88 36.292 96.392 36.508C96.904 36.724 97.508 36.848 98.204 36.88C98.524 36.888 98.916 36.896 99.38 36.904C99.852 36.904 100.344 36.9 100.856 36.892C101.368 36.884 101.864 36.872 102.344 36.856C102.824 36.84 103.24 36.82 103.592 36.796C103.56 36.868 103.524 36.956 103.484 37.06C103.444 37.172 103.408 37.284 103.376 37.396C103.344 37.508 103.32 37.608 103.304 37.696C102.976 37.712 102.588 37.724 102.14 37.732C101.7 37.748 101.24 37.756 100.76 37.756C100.28 37.764 99.816 37.764 99.368 37.756C98.92 37.756 98.532 37.748 98.204 37.732C97.428 37.7 96.76 37.568 96.2 37.336C95.648 37.112 95.18 36.768 94.796 36.304C94.5 36.56 94.192 36.816 93.872 37.072C93.56 37.336 93.236 37.596 92.9 37.852L92.444 36.952C92.74 36.768 93.06 36.552 93.404 36.304C93.748 36.048 94.08 35.788 94.4 35.524H95.192ZM93.176 27.628L93.788 27.076C94.036 27.204 94.288 27.352 94.544 27.52C94.8 27.688 95.04 27.86 95.264 28.036C95.488 28.212 95.668 28.384 95.804 28.552L95.168 29.164C95.04 29.004 94.864 28.832 94.64 28.648C94.424 28.464 94.188 28.284 93.932 28.108C93.676 27.924 93.424 27.764 93.176 27.628ZM92.684 30.064L93.272 29.488C93.528 29.608 93.792 29.748 94.064 29.908C94.344 30.068 94.604 30.24 94.844 30.424C95.092 30.6 95.288 30.768 95.432 30.928L94.82 31.576C94.676 31.416 94.484 31.244 94.244 31.06C94.012 30.876 93.76 30.696 93.488 30.52C93.216 30.344 92.948 30.192 92.684 30.064ZM98.924 26.956H99.812C99.796 28.06 99.756 29.08 99.692 30.016C99.628 30.952 99.48 31.8 99.248 32.56C99.024 33.32 98.672 33.992 98.192 34.576C97.712 35.152 97.048 35.64 96.2 36.04C96.168 35.968 96.116 35.888 96.044 35.8C95.972 35.712 95.896 35.628 95.816 35.548C95.744 35.46 95.672 35.396 95.6 35.356C96.4 34.996 97.02 34.552 97.46 34.024C97.908 33.496 98.232 32.88 98.432 32.176C98.64 31.472 98.768 30.688 98.816 29.824C98.872 28.952 98.908 27.996 98.924 26.956ZM99.884 30.256C100.036 31.096 100.252 31.848 100.532 32.512C100.82 33.168 101.2 33.724 101.672 34.18C102.152 34.636 102.744 34.988 103.448 35.236C103.392 35.292 103.324 35.368 103.244 35.464C103.172 35.552 103.104 35.644 103.04 35.74C102.976 35.836 102.924 35.924 102.884 36.004C102.132 35.7 101.504 35.292 101 34.78C100.496 34.268 100.092 33.648 99.788 32.92C99.492 32.184 99.26 31.336 99.092 30.376L99.884 30.256ZM80.78 43.312H91.244V44.176H80.78V43.312ZM85.496 41.908H86.444V43.756H85.496V41.908ZM83.144 46.06V48.04H88.916V46.06H83.144ZM82.256 45.268H89.864V48.832H82.256V45.268ZM88.244 49.936L89.048 49.54C89.32 49.804 89.6 50.092 89.888 50.404C90.184 50.716 90.46 51.024 90.716 51.328C90.972 51.624 91.18 51.892 91.34 52.132L90.476 52.6C90.332 52.36 90.132 52.088 89.876 51.784C89.628 51.472 89.36 51.156 89.072 50.836C88.784 50.508 88.508 50.208 88.244 49.936ZM85.508 48.496H86.444V51.916C86.444 52.18 86.408 52.38 86.336 52.516C86.264 52.652 86.12 52.756 85.904 52.828C85.696 52.892 85.416 52.928 85.064 52.936C84.72 52.952 84.284 52.96 83.756 52.96C83.732 52.832 83.688 52.688 83.624 52.528C83.568 52.376 83.508 52.236 83.444 52.108C83.724 52.116 83.984 52.12 84.224 52.12C84.472 52.12 84.684 52.12 84.86 52.12C85.044 52.12 85.172 52.12 85.244 52.12C85.348 52.112 85.416 52.092 85.448 52.06C85.488 52.028 85.508 51.972 85.508 51.892V48.496ZM82.748 49.528L83.66 49.828C83.476 50.14 83.252 50.46 82.988 50.788C82.732 51.116 82.456 51.428 82.16 51.724C81.872 52.02 81.576 52.284 81.272 52.516C81.184 52.42 81.068 52.32 80.924 52.216C80.78 52.12 80.656 52.044 80.552 51.988C80.848 51.772 81.136 51.528 81.416 51.256C81.696 50.984 81.952 50.7 82.184 50.404C82.416 50.1 82.604 49.808 82.748 49.528ZM94.124 48.088V47.356L94.724 47.044H102.488V47.92H95.432C95.192 47.92 94.98 47.928 94.796 47.944C94.62 47.952 94.476 47.968 94.364 47.992C94.252 48.016 94.172 48.048 94.124 48.088ZM98.084 45.28H98.996V51.724C98.996 51.988 98.96 52.192 98.888 52.336C98.824 52.488 98.696 52.604 98.504 52.684C98.32 52.756 98.072 52.804 97.76 52.828C97.456 52.852 97.092 52.864 96.668 52.864C96.652 52.768 96.624 52.664 96.584 52.552C96.544 52.44 96.5 52.328 96.452 52.216C96.412 52.112 96.368 52.016 96.32 51.928C96.664 51.936 96.98 51.94 97.268 51.94C97.556 51.94 97.752 51.936 97.856 51.928C97.944 51.928 98.004 51.912 98.036 51.88C98.068 51.848 98.084 51.792 98.084 51.712V45.28ZM95.084 48.868L95.984 49.108C95.792 49.532 95.568 49.948 95.312 50.356C95.056 50.764 94.78 51.148 94.484 51.508C94.196 51.868 93.908 52.184 93.62 52.456C93.564 52.408 93.488 52.344 93.392 52.264C93.304 52.192 93.212 52.12 93.116 52.048C93.02 51.976 92.932 51.92 92.852 51.88C93.3 51.504 93.724 51.048 94.124 50.512C94.524 49.976 94.844 49.428 95.084 48.868ZM99.992 49.228L100.736 48.856C101.048 49.152 101.368 49.484 101.696 49.852C102.024 50.212 102.328 50.568 102.608 50.92C102.888 51.272 103.112 51.588 103.28 51.868L102.476 52.312C102.316 52.032 102.1 51.712 101.828 51.352C101.556 50.992 101.26 50.628 100.94 50.26C100.62 49.884 100.304 49.54 99.992 49.228ZM92.924 43.516H103.004V44.368H92.924V43.516ZM94.124 48.088C94.108 48.024 94.08 47.936 94.04 47.824C94.008 47.704 93.968 47.584 93.92 47.464C93.88 47.344 93.84 47.244 93.8 47.164C93.936 47.124 94.076 47.024 94.22 46.864C94.364 46.696 94.524 46.48 94.7 46.216C94.796 46.088 94.936 45.88 95.12 45.592C95.304 45.296 95.508 44.948 95.732 44.548C95.964 44.148 96.192 43.716 96.416 43.252C96.648 42.788 96.856 42.32 97.04 41.848L98 42.244C97.704 42.892 97.384 43.536 97.04 44.176C96.696 44.808 96.336 45.412 95.96 45.988C95.592 46.556 95.224 47.072 94.856 47.536V47.56C94.856 47.56 94.82 47.58 94.748 47.62C94.676 47.652 94.592 47.696 94.496 47.752C94.4 47.808 94.312 47.868 94.232 47.932C94.16 47.988 94.124 48.04 94.124 48.088Z" fill="black"/>
<path d="M36 95V81H95V95H36Z" fill="#FFC85A" stroke="#757575" stroke-width="0.945547"/>
<path d="M214.717 209.554H155.431V224.564H50.8067V209.554H1V119.088V103.085H50.8067H214.717V119.088V156.319V209.554Z" fill="#8FC9FF"/>
<path d="M50.8067 209.554V224.564H155.431V209.554H214.717V156.319V119.088M50.8067 209.554H1V119.088M50.8067 209.554V119.088M50.8067 119.088H214.717M50.8067 119.088H1M214.717 119.088V103.085H50.8067H1V119.088" stroke="#757575"/>
<path d="M255 203H267.912H290.956H314V127H282.879H255V203Z" fill="#03AA11" stroke="#757575"/>
<rect x="275" y="203" width="39" height="16" fill="#8FC9FF" stroke="#757575"/>
<path d="M121.732 151.76H132.304V152.564H121.732V151.76ZM124.528 150.92H125.44V153.524H124.528V150.92ZM128.548 150.92H129.46V153.392H128.548V150.92ZM121.696 157.832H132.352V158.648H121.696V157.832ZM126.508 156.908H127.444V161.96H126.508V156.908ZM126.148 158.18L126.892 158.516C126.524 158.98 126.072 159.42 125.536 159.836C125 160.244 124.428 160.612 123.82 160.94C123.212 161.268 122.616 161.532 122.032 161.732C121.984 161.652 121.924 161.564 121.852 161.468C121.78 161.372 121.704 161.276 121.624 161.18C121.544 161.084 121.472 161.008 121.408 160.952C121.848 160.824 122.292 160.664 122.74 160.472C123.196 160.28 123.636 160.064 124.06 159.824C124.484 159.576 124.876 159.316 125.236 159.044C125.596 158.764 125.9 158.476 126.148 158.18ZM127.816 158.228C128.144 158.62 128.564 158.988 129.076 159.332C129.588 159.676 130.144 159.98 130.744 160.244C131.344 160.508 131.944 160.716 132.544 160.868C132.48 160.924 132.408 161 132.328 161.096C132.248 161.192 132.172 161.288 132.1 161.384C132.036 161.48 131.98 161.572 131.932 161.66C131.332 161.468 130.728 161.22 130.12 160.916C129.52 160.604 128.96 160.244 128.44 159.836C127.92 159.428 127.48 158.996 127.12 158.54L127.816 158.228ZM130.732 153.26L131.452 153.968C130.86 154.104 130.196 154.224 129.46 154.328C128.732 154.424 127.96 154.508 127.144 154.58C126.336 154.652 125.516 154.708 124.684 154.748C123.86 154.788 123.064 154.816 122.296 154.832C122.288 154.72 122.26 154.588 122.212 154.436C122.172 154.276 122.132 154.148 122.092 154.052C122.844 154.036 123.624 154.008 124.432 153.968C125.24 153.92 126.032 153.864 126.808 153.8C127.592 153.736 128.32 153.66 128.992 153.572C129.664 153.476 130.244 153.372 130.732 153.26ZM122.632 155.456L123.388 155.132C123.628 155.396 123.852 155.696 124.06 156.032C124.268 156.368 124.416 156.66 124.504 156.908L123.7 157.256C123.62 157 123.48 156.704 123.28 156.368C123.08 156.032 122.864 155.728 122.632 155.456ZM125.944 155.132L126.736 154.88C126.912 155.136 127.072 155.42 127.216 155.732C127.36 156.044 127.456 156.316 127.504 156.548L126.652 156.836C126.612 156.604 126.524 156.332 126.388 156.02C126.26 155.7 126.112 155.404 125.944 155.132ZM130.684 154.688L131.596 155.024C131.348 155.424 131.08 155.836 130.792 156.26C130.512 156.684 130.256 157.044 130.024 157.34L129.328 157.016C129.48 156.816 129.64 156.58 129.808 156.308C129.976 156.028 130.136 155.748 130.288 155.468C130.448 155.18 130.58 154.92 130.684 154.688ZM143.152 156.524H144.052C144.052 156.524 144.048 156.548 144.04 156.596C144.04 156.644 144.04 156.7 144.04 156.764C144.04 156.828 144.036 156.88 144.028 156.92C143.956 157.928 143.88 158.748 143.8 159.38C143.72 160.004 143.632 160.484 143.536 160.82C143.44 161.156 143.328 161.392 143.2 161.528C143.088 161.656 142.964 161.744 142.828 161.792C142.7 161.84 142.54 161.872 142.348 161.888C142.188 161.904 141.968 161.908 141.688 161.9C141.408 161.9 141.112 161.892 140.8 161.876C140.792 161.756 140.764 161.616 140.716 161.456C140.676 161.304 140.62 161.172 140.548 161.06C140.86 161.092 141.148 161.108 141.412 161.108C141.684 161.116 141.88 161.12 142 161.12C142.104 161.12 142.188 161.112 142.252 161.096C142.324 161.08 142.388 161.044 142.444 160.988C142.548 160.884 142.64 160.68 142.72 160.376C142.808 160.064 142.888 159.612 142.96 159.02C143.032 158.42 143.096 157.636 143.152 156.668V156.524ZM141.904 152.072H142.756C142.756 152.072 142.752 152.116 142.744 152.204C142.744 152.292 142.74 152.368 142.732 152.432C142.668 153.104 142.608 153.656 142.552 154.088C142.496 154.512 142.428 154.844 142.348 155.084C142.276 155.316 142.192 155.488 142.096 155.6C142 155.696 141.9 155.768 141.796 155.816C141.692 155.856 141.568 155.88 141.424 155.888C141.312 155.904 141.156 155.912 140.956 155.912C140.756 155.912 140.54 155.908 140.308 155.9C140.3 155.772 140.276 155.632 140.236 155.48C140.196 155.328 140.144 155.196 140.08 155.084C140.288 155.108 140.48 155.124 140.656 155.132C140.832 155.132 140.96 155.132 141.04 155.132C141.12 155.132 141.188 155.128 141.244 155.12C141.3 155.104 141.348 155.072 141.388 155.024C141.46 154.952 141.524 154.816 141.58 154.616C141.644 154.408 141.7 154.112 141.748 153.728C141.796 153.336 141.848 152.824 141.904 152.192V152.072ZM138.34 150.872L139.372 151.016C139.244 151.296 139.1 151.576 138.94 151.856C138.78 152.128 138.636 152.36 138.508 152.552L137.728 152.384C137.832 152.168 137.944 151.916 138.064 151.628C138.184 151.34 138.276 151.088 138.34 150.872ZM136.948 153.992L137.44 153.452C137.712 153.564 138.004 153.696 138.316 153.848C138.628 154 138.924 154.156 139.204 154.316C139.492 154.468 139.728 154.608 139.912 154.736L139.396 155.348C139.22 155.228 138.992 155.088 138.712 154.928C138.432 154.76 138.136 154.596 137.824 154.436C137.52 154.268 137.228 154.12 136.948 153.992ZM133.6 158.756H141.712V159.56H133.6V158.756ZM142.084 152.072V152.9H136.096V156.524H143.536V157.34H135.22V152.072H142.084ZM125.14 171.56H125.932C125.932 171.56 125.932 171.608 125.932 171.704C125.932 171.8 125.928 171.876 125.92 171.932C125.856 172.972 125.788 173.808 125.716 174.44C125.652 175.072 125.576 175.556 125.488 175.892C125.4 176.228 125.296 176.464 125.176 176.6C125.072 176.72 124.96 176.8 124.84 176.84C124.72 176.888 124.572 176.92 124.396 176.936C124.236 176.952 124.024 176.96 123.76 176.96C123.504 176.96 123.228 176.948 122.932 176.924C122.924 176.82 122.9 176.692 122.86 176.54C122.82 176.396 122.768 176.276 122.704 176.18C123 176.204 123.272 176.216 123.52 176.216C123.776 176.224 123.96 176.228 124.072 176.228C124.168 176.228 124.248 176.22 124.312 176.204C124.384 176.196 124.444 176.16 124.492 176.096C124.596 176 124.684 175.8 124.756 175.496C124.828 175.184 124.896 174.724 124.96 174.116C125.024 173.5 125.084 172.696 125.14 171.704V171.56ZM121.42 174.26C121.828 174.172 122.308 174.06 122.86 173.924C123.42 173.78 123.992 173.628 124.576 173.468L124.66 174.164C124.124 174.316 123.592 174.468 123.064 174.62C122.536 174.764 122.048 174.896 121.6 175.016L121.42 174.26ZM121.744 166.244H124.912V167.036H121.744V166.244ZM124.672 166.244H125.464C125.432 166.684 125.396 167.152 125.356 167.648C125.316 168.144 125.272 168.64 125.224 169.136C125.184 169.632 125.14 170.104 125.092 170.552C125.052 170.992 125.008 171.38 124.96 171.716L124.168 171.764C124.216 171.412 124.264 171.012 124.312 170.564C124.368 170.108 124.416 169.632 124.456 169.136C124.504 168.632 124.544 168.132 124.576 167.636C124.616 167.14 124.648 166.676 124.672 166.244ZM122.212 168.164L123.004 168.212C122.972 168.652 122.932 169.124 122.884 169.628C122.844 170.132 122.8 170.62 122.752 171.092C122.704 171.556 122.656 171.96 122.608 172.304H121.84C121.888 171.952 121.936 171.536 121.984 171.056C122.032 170.576 122.076 170.084 122.116 169.58C122.156 169.068 122.188 168.596 122.212 168.164ZM122.104 171.572H125.224V172.304H122.104V171.572ZM126.16 166.568H131.44V167.384H126.16V166.568ZM131.272 166.568H131.428L131.584 166.532L132.136 166.82C131.856 167.404 131.5 167.936 131.068 168.416C130.644 168.896 130.164 169.328 129.628 169.712C129.092 170.096 128.528 170.432 127.936 170.72C127.352 171 126.764 171.232 126.172 171.416C126.124 171.304 126.052 171.176 125.956 171.032C125.86 170.888 125.768 170.776 125.68 170.696C126.24 170.544 126.804 170.344 127.372 170.096C127.94 169.84 128.476 169.544 128.98 169.208C129.484 168.864 129.932 168.484 130.324 168.068C130.724 167.652 131.04 167.2 131.272 166.712V166.568ZM127.336 166.928C127.656 167.544 128.08 168.104 128.608 168.608C129.136 169.112 129.744 169.544 130.432 169.904C131.128 170.256 131.876 170.528 132.676 170.72C132.612 170.776 132.544 170.848 132.472 170.936C132.4 171.024 132.332 171.116 132.268 171.212C132.204 171.3 132.152 171.384 132.112 171.464C131.296 171.232 130.536 170.916 129.832 170.516C129.136 170.116 128.516 169.636 127.972 169.076C127.428 168.508 126.984 167.876 126.64 167.18L127.336 166.928ZM126.46 172.112H131.848V172.928H126.46V172.112ZM126.004 174.176H132.4V174.992H126.004V174.176ZM128.752 171.056H129.604V176.936H128.752V171.056ZM133.684 168.296H138.316V169.148H133.684V168.296ZM135.592 166.076H136.444V168.728H135.592V166.076ZM141.076 168.404H144.52V169.268H141.076V168.404ZM139.012 175.532H143.548V176.372H139.012V175.532ZM140.62 165.908H141.544V172.028H140.62V165.908ZM138.604 171.656H144.016V176.9H143.104V172.508H139.48V176.948H138.604V171.656ZM133.456 174.704C133.872 174.624 134.348 174.528 134.884 174.416C135.42 174.296 135.992 174.168 136.6 174.032C137.208 173.896 137.812 173.76 138.412 173.624L138.496 174.464C137.928 174.592 137.356 174.728 136.78 174.872C136.204 175.008 135.648 175.14 135.112 175.268C134.584 175.388 134.1 175.5 133.66 175.604L133.456 174.704ZM134.152 169.772L134.884 169.64C134.988 170.08 135.076 170.552 135.148 171.056C135.228 171.56 135.292 172.056 135.34 172.544C135.388 173.024 135.412 173.456 135.412 173.84L134.632 173.984C134.632 173.6 134.608 173.168 134.56 172.688C134.52 172.2 134.464 171.704 134.392 171.2C134.32 170.696 134.24 170.22 134.152 169.772ZM136.948 169.508L137.824 169.676C137.76 170.18 137.68 170.716 137.584 171.284C137.496 171.844 137.4 172.388 137.296 172.916C137.2 173.444 137.104 173.904 137.008 174.296L136.252 174.128C136.324 173.824 136.392 173.48 136.456 173.096C136.528 172.712 136.592 172.312 136.648 171.896C136.712 171.472 136.768 171.056 136.816 170.648C136.872 170.24 136.916 169.86 136.948 169.508Z" fill="black"/>
<path d="M272.152 152.068H281.824V157.708H280.9V152.944H273.052V157.768H272.152V152.068ZM272.632 156.136H281.44V157.024H272.632V156.136ZM276.496 149.92H277.444V160.948H276.496V149.92ZM285.904 152.32H292.072V153.124H285.904V152.32ZM286.24 154.84H291.784V155.62H286.24V154.84ZM285.736 157.648H292.324V158.416H285.736V157.648ZM288.508 152.572H289.36V158.068H288.508V152.572ZM290.104 156.16L290.692 155.836C290.924 156.028 291.152 156.248 291.376 156.496C291.608 156.744 291.788 156.964 291.916 157.156L291.292 157.528C291.172 157.336 291 157.112 290.776 156.856C290.552 156.592 290.328 156.36 290.104 156.16ZM284.032 150.46H293.968V160.96H293.02V151.3H284.944V160.96H284.032V150.46ZM284.512 159.52H293.452V160.36H284.512V159.52ZM272.02 166.756H277.348V175.024H276.52V167.548H272.812V175.192H272.02V166.756ZM272.392 170.08H276.808V170.86H272.392V170.08ZM272.416 173.62H276.784V174.4H272.416V173.62ZM274.24 164.932H275.128V167.2H275.08V174.16H274.288V167.2H274.24V164.932ZM278.512 165.568H281.656V166.42H279.304V175.948H278.512V165.568ZM281.452 165.568H281.62L281.764 165.532L282.388 165.928C282.172 166.48 281.928 167.076 281.656 167.716C281.392 168.356 281.132 168.956 280.876 169.516C281.42 170.084 281.78 170.608 281.956 171.088C282.14 171.56 282.232 172.004 282.232 172.42C282.232 172.772 282.188 173.088 282.1 173.368C282.02 173.64 281.876 173.844 281.668 173.98C281.572 174.044 281.46 174.096 281.332 174.136C281.204 174.176 281.068 174.208 280.924 174.232C280.772 174.248 280.6 174.256 280.408 174.256C280.224 174.256 280.04 174.252 279.856 174.244C279.848 174.124 279.824 173.984 279.784 173.824C279.744 173.656 279.684 173.512 279.604 173.392C279.788 173.408 279.964 173.42 280.132 173.428C280.3 173.428 280.444 173.424 280.564 173.416C280.66 173.408 280.752 173.396 280.84 173.38C280.928 173.356 281.004 173.328 281.068 173.296C281.196 173.216 281.284 173.092 281.332 172.924C281.38 172.748 281.4 172.556 281.392 172.348C281.392 171.972 281.292 171.56 281.092 171.112C280.9 170.664 280.528 170.168 279.976 169.624C280.12 169.312 280.26 168.984 280.396 168.64C280.54 168.296 280.676 167.956 280.804 167.62C280.932 167.276 281.052 166.952 281.164 166.648C281.276 166.336 281.372 166.064 281.452 165.832V165.568ZM283.612 165.772H289.132V166.636H283.612V165.772ZM286.564 169.264H288.676V170.128H286.564V169.264ZM286.156 166.24H287.032V173.812H286.156V166.24ZM284.116 168.46H284.944V174.16H284.116V168.46ZM283.396 173.944C283.868 173.856 284.416 173.748 285.04 173.62C285.664 173.484 286.324 173.34 287.02 173.188C287.724 173.028 288.42 172.868 289.108 172.708L289.192 173.536C288.528 173.696 287.86 173.856 287.188 174.016C286.516 174.176 285.868 174.328 285.244 174.472C284.628 174.608 284.072 174.736 283.576 174.856L283.396 173.944ZM289.948 167.152H294.508V167.992H289.948V167.152ZM290.356 164.92L291.256 165.064C291.112 165.816 290.928 166.544 290.704 167.248C290.488 167.944 290.244 168.596 289.972 169.204C289.7 169.804 289.392 170.336 289.048 170.8C289 170.736 288.932 170.668 288.844 170.596C288.756 170.516 288.664 170.44 288.568 170.368C288.472 170.296 288.392 170.236 288.328 170.188C288.656 169.772 288.948 169.284 289.204 168.724C289.468 168.164 289.696 167.56 289.888 166.912C290.08 166.264 290.236 165.6 290.356 164.92ZM292.84 167.596L293.74 167.692C293.54 169.068 293.248 170.28 292.864 171.328C292.48 172.376 291.964 173.284 291.316 174.052C290.676 174.812 289.856 175.456 288.856 175.984C288.824 175.912 288.776 175.824 288.712 175.72C288.648 175.624 288.58 175.528 288.508 175.432C288.444 175.336 288.38 175.26 288.316 175.204C289.26 174.74 290.036 174.16 290.644 173.464C291.252 172.76 291.728 171.924 292.072 170.956C292.416 169.98 292.672 168.86 292.84 167.596ZM290.332 167.932C290.524 169.044 290.8 170.08 291.16 171.04C291.528 172 291.992 172.84 292.552 173.56C293.12 174.272 293.812 174.82 294.628 175.204C294.564 175.26 294.492 175.332 294.412 175.42C294.332 175.508 294.256 175.6 294.184 175.696C294.112 175.792 294.052 175.88 294.004 175.96C293.156 175.512 292.44 174.904 291.856 174.136C291.272 173.368 290.792 172.472 290.416 171.448C290.048 170.416 289.752 169.292 289.528 168.076L290.332 167.932Z" fill="black"/>
<rect x="255" y="81" width="28" height="14" fill="#8FC9FF" stroke="#757575"/>
<rect x="95" y="81" width="120" height="14" fill="#8FC9FF" stroke="#757575"/>
<rect x="283" y="81" width="31" height="46" fill="#FF99C4" stroke="#757575"/>
<path d="M296.808 91.088L297.492 91.784C297.044 91.936 296.532 92.08 295.956 92.216C295.388 92.352 294.796 92.472 294.18 92.576C293.572 92.68 292.98 92.772 292.404 92.852C292.388 92.748 292.352 92.628 292.296 92.492C292.24 92.356 292.184 92.244 292.128 92.156C292.688 92.068 293.256 91.968 293.832 91.856C294.416 91.744 294.968 91.624 295.488 91.496C296.008 91.36 296.448 91.224 296.808 91.088ZM291.828 91.904L292.944 92.108C292.936 92.188 292.856 92.24 292.704 92.264V95.888C292.704 96.328 292.684 96.808 292.644 97.328C292.612 97.84 292.544 98.364 292.44 98.9C292.336 99.436 292.176 99.96 291.96 100.472C291.752 100.976 291.468 101.44 291.108 101.864C291.068 101.8 291.008 101.728 290.928 101.648C290.856 101.568 290.776 101.492 290.688 101.42C290.608 101.348 290.528 101.296 290.448 101.264C290.864 100.744 291.168 100.172 291.36 99.548C291.56 98.924 291.688 98.296 291.744 97.664C291.8 97.032 291.828 96.436 291.828 95.876V91.904ZM293.028 97.712L293.4 97.028C293.784 97.156 294.192 97.304 294.624 97.472C295.056 97.64 295.484 97.816 295.908 98C296.34 98.176 296.74 98.356 297.108 98.54C297.476 98.716 297.792 98.884 298.056 99.044L297.66 99.824C297.404 99.664 297.092 99.492 296.724 99.308C296.364 99.124 295.972 98.936 295.548 98.744C295.132 98.544 294.704 98.36 294.264 98.192C293.832 98.016 293.42 97.856 293.028 97.712ZM292.356 94.88H298.044V95.72H292.356V94.88ZM295.056 95.408H295.92V101.948H295.056V95.408ZM286.836 97.28C287.196 97.192 287.604 97.084 288.06 96.956C288.516 96.828 288.996 96.692 289.5 96.548C290.012 96.396 290.524 96.244 291.036 96.092L291.144 96.932C290.44 97.148 289.732 97.364 289.02 97.58C288.308 97.796 287.668 97.988 287.1 98.156L286.836 97.28ZM287.028 93.344H291.012V94.196H287.028V93.344ZM288.744 90.92H289.62V100.892C289.62 101.148 289.588 101.344 289.524 101.48C289.468 101.616 289.36 101.72 289.2 101.792C289.04 101.856 288.832 101.9 288.576 101.924C288.32 101.948 287.992 101.956 287.592 101.948C287.576 101.836 287.54 101.7 287.484 101.54C287.428 101.38 287.372 101.24 287.316 101.12C287.588 101.128 287.836 101.132 288.06 101.132C288.284 101.132 288.436 101.132 288.516 101.132C288.596 101.124 288.652 101.104 288.684 101.072C288.724 101.04 288.744 100.984 288.744 100.904V90.92ZM300.54 90.92H301.44V101.948H300.54V90.92ZM299.46 93.236L300.144 93.332C300.128 93.66 300.092 94.02 300.036 94.412C299.988 94.796 299.92 95.18 299.832 95.564C299.752 95.94 299.656 96.276 299.544 96.572L298.836 96.32C298.948 96.056 299.044 95.744 299.124 95.384C299.212 95.024 299.284 94.656 299.34 94.28C299.396 93.904 299.436 93.556 299.46 93.236ZM301.464 93.128L302.1 92.852C302.228 93.084 302.352 93.336 302.472 93.608C302.6 93.872 302.712 94.128 302.808 94.376C302.904 94.624 302.976 94.844 303.024 95.036L302.352 95.372C302.304 95.18 302.232 94.956 302.136 94.7C302.04 94.436 301.932 94.168 301.812 93.896C301.7 93.616 301.584 93.36 301.464 93.128ZM303.108 92.828H309.048V96.92H308.16V93.68H303.108V92.828ZM302.46 96.428H310.08V97.304H302.46V96.428ZM306.492 96.608C306.684 97.304 306.948 97.956 307.284 98.564C307.62 99.164 308.028 99.688 308.508 100.136C308.996 100.584 309.556 100.924 310.188 101.156C310.116 101.22 310.036 101.3 309.948 101.396C309.868 101.492 309.792 101.592 309.72 101.696C309.648 101.808 309.588 101.908 309.54 101.996C308.876 101.7 308.296 101.3 307.8 100.796C307.304 100.284 306.884 99.688 306.54 99.008C306.196 98.328 305.916 97.588 305.7 96.788L306.492 96.608ZM305.46 90.92H306.36V94.916C306.36 95.388 306.336 95.876 306.288 96.38C306.248 96.884 306.16 97.392 306.024 97.904C305.896 98.408 305.7 98.904 305.436 99.392C305.172 99.88 304.816 100.348 304.368 100.796C303.928 101.236 303.372 101.64 302.7 102.008C302.66 101.936 302.604 101.856 302.532 101.768C302.46 101.688 302.38 101.604 302.292 101.516C302.212 101.436 302.136 101.368 302.064 101.312C302.72 100.976 303.256 100.612 303.672 100.22C304.096 99.82 304.428 99.4 304.668 98.96C304.916 98.512 305.092 98.06 305.196 97.604C305.308 97.14 305.38 96.68 305.412 96.224C305.444 95.768 305.46 95.332 305.46 94.916V90.92ZM291.108 111.188H297.156V111.92H291.108V111.188ZM296.892 111.188H297.708C297.708 111.188 297.704 111.228 297.696 111.308C297.696 111.388 297.692 111.456 297.684 111.512C297.636 112.24 297.58 112.776 297.516 113.12C297.46 113.464 297.372 113.7 297.252 113.828C297.164 113.916 297.068 113.984 296.964 114.032C296.868 114.072 296.744 114.096 296.592 114.104C296.472 114.12 296.308 114.128 296.1 114.128C295.892 114.12 295.672 114.112 295.44 114.104C295.432 113.984 295.408 113.856 295.368 113.72C295.328 113.576 295.276 113.452 295.212 113.348C295.436 113.364 295.644 113.376 295.836 113.384C296.028 113.392 296.164 113.396 296.244 113.396C296.412 113.396 296.528 113.364 296.592 113.3C296.656 113.22 296.712 113.036 296.76 112.748C296.808 112.452 296.852 111.968 296.892 111.296V111.188ZM290.544 107.468H297.228V110.084H291.42V109.328H296.448V108.224H290.544V107.468ZM290.988 109.328H291.804C291.772 109.624 291.732 109.928 291.684 110.24C291.636 110.552 291.588 110.856 291.54 111.152C291.492 111.44 291.44 111.696 291.384 111.92H290.604C290.66 111.68 290.712 111.416 290.76 111.128C290.808 110.832 290.852 110.528 290.892 110.216C290.932 109.904 290.964 109.608 290.988 109.328ZM291.684 106.196L292.404 105.884C292.588 106.076 292.76 106.3 292.92 106.556C293.08 106.804 293.196 107.02 293.268 107.204L292.5 107.576C292.436 107.392 292.324 107.168 292.164 106.904C292.012 106.64 291.852 106.404 291.684 106.196ZM295.548 105.908L296.436 106.148C296.244 106.46 296.044 106.768 295.836 107.072C295.636 107.368 295.444 107.628 295.26 107.852L294.516 107.624C294.636 107.464 294.76 107.288 294.888 107.096C295.024 106.896 295.148 106.692 295.26 106.484C295.372 106.268 295.468 106.076 295.548 105.908ZM293.364 111.524L294.144 111.776C293.776 112.368 293.288 112.908 292.68 113.396C292.08 113.876 291.416 114.276 290.688 114.596C290.648 114.54 290.592 114.476 290.52 114.404C290.456 114.324 290.388 114.252 290.316 114.188C290.244 114.116 290.176 114.056 290.112 114.008C290.816 113.72 291.46 113.36 292.044 112.928C292.628 112.488 293.068 112.02 293.364 111.524ZM293.58 107.792H294.468V115.172H293.58V107.792ZM287.472 106.808L288.24 106.436C288.424 106.652 288.612 106.888 288.804 107.144C289.004 107.392 289.184 107.64 289.344 107.888C289.512 108.128 289.648 108.348 289.752 108.548L288.936 108.968C288.84 108.776 288.712 108.556 288.552 108.308C288.392 108.052 288.216 107.792 288.024 107.528C287.84 107.264 287.656 107.024 287.472 106.808ZM289.572 110.408V114.8H288.708V111.284H287.1V110.408H289.572ZM289.128 114.38C289.32 114.38 289.504 114.456 289.68 114.608C289.864 114.752 290.124 114.924 290.46 115.124C290.852 115.364 291.308 115.52 291.828 115.592C292.348 115.656 292.948 115.688 293.628 115.688C293.988 115.688 294.364 115.684 294.756 115.676C295.156 115.66 295.552 115.644 295.944 115.628C296.344 115.604 296.724 115.58 297.084 115.556C297.452 115.524 297.788 115.488 298.092 115.448C298.052 115.528 298.012 115.628 297.972 115.748C297.932 115.86 297.896 115.976 297.864 116.096C297.84 116.216 297.824 116.32 297.816 116.408C297.592 116.424 297.304 116.436 296.952 116.444C296.6 116.46 296.22 116.476 295.812 116.492C295.404 116.508 295.004 116.516 294.612 116.516C294.228 116.524 293.892 116.528 293.604 116.528C292.86 116.528 292.22 116.484 291.684 116.396C291.156 116.316 290.68 116.148 290.256 115.892C290.008 115.74 289.784 115.584 289.584 115.424C289.392 115.264 289.232 115.184 289.104 115.184C288.984 115.184 288.848 115.256 288.696 115.4C288.544 115.536 288.38 115.72 288.204 115.952C288.036 116.176 287.864 116.42 287.688 116.684L287.076 115.844C287.452 115.412 287.816 115.06 288.168 114.788C288.528 114.516 288.848 114.38 289.128 114.38ZM307.008 107.936L307.884 108.236C307.404 109.148 306.848 110.016 306.216 110.84C305.592 111.656 304.92 112.408 304.2 113.096C303.488 113.776 302.748 114.376 301.98 114.896C301.924 114.832 301.852 114.756 301.764 114.668C301.684 114.58 301.596 114.492 301.5 114.404C301.412 114.316 301.332 114.248 301.26 114.2C302.036 113.728 302.78 113.168 303.492 112.52C304.204 111.872 304.856 111.16 305.448 110.384C306.048 109.6 306.568 108.784 307.008 107.936ZM301.752 109.4L302.388 108.836C302.932 109.172 303.492 109.548 304.068 109.964C304.652 110.38 305.22 110.808 305.772 111.248C306.324 111.688 306.828 112.124 307.284 112.556C307.74 112.98 308.124 113.38 308.436 113.756L307.716 114.44C307.42 114.064 307.048 113.66 306.6 113.228C306.16 112.788 305.672 112.344 305.136 111.896C304.6 111.44 304.04 111 303.456 110.576C302.88 110.152 302.312 109.76 301.752 109.4ZM299.628 106.652H309.648V107.528H300.528V116.984H299.628V106.652ZM300.204 115.424H309.924V116.288H300.204V115.424Z" fill="black"/>
<path d="M234.707 204.293C234.317 203.902 233.683 203.902 233.293 204.293L226.929 210.657C226.538 211.047 226.538 211.681 226.929 212.071C227.319 212.462 227.953 212.462 228.343 212.071L234 206.414L239.657 212.071C240.047 212.462 240.681 212.462 241.071 212.071C241.462 211.681 241.462 211.047 241.071 210.657L234.707 204.293ZM234 225H235V205H234H233V225H234Z" fill="black"/>
<path d="M226 16V1H262V16H226Z" fill="#C3C3C3" stroke="#757575"/>
<rect x="301" y="16" width="13" height="47" fill="#C3C3C3" stroke="#757575"/>
<path d="M149 63V16H262V63H149Z" fill="#C3C3C3" stroke="#757575"/>
<path d="M198.832 27.448H204.46V28.24H198.832V27.448ZM201.196 27.844L202.168 27.976C202.04 28.32 201.908 28.668 201.772 29.02C201.644 29.372 201.52 29.672 201.4 29.92L200.644 29.764C200.748 29.492 200.852 29.176 200.956 28.816C201.06 28.448 201.14 28.124 201.196 27.844ZM201.148 31.144H201.976V33.556C201.976 33.924 201.944 34.312 201.88 34.72C201.816 35.12 201.684 35.52 201.484 35.92C201.284 36.312 200.98 36.684 200.572 37.036C200.172 37.396 199.64 37.72 198.976 38.008C198.912 37.92 198.824 37.812 198.712 37.684C198.608 37.556 198.508 37.452 198.412 37.372C199.036 37.132 199.528 36.856 199.888 36.544C200.256 36.232 200.528 35.904 200.704 35.56C200.888 35.216 201.008 34.872 201.064 34.528C201.12 34.176 201.148 33.852 201.148 33.556V31.144ZM201.448 35.656L202.06 35.164C202.34 35.38 202.632 35.62 202.936 35.884C203.24 36.148 203.524 36.412 203.788 36.676C204.06 36.932 204.28 37.164 204.448 37.372L203.812 37.948C203.652 37.732 203.44 37.488 203.176 37.216C202.912 36.952 202.628 36.684 202.324 36.412C202.02 36.132 201.728 35.88 201.448 35.656ZM199.156 29.464H204.004V35.176H203.152V30.292H199.972V35.2H199.156V29.464ZM197.404 27.316H198.196V37.636H197.404V27.316ZM195.772 28.216H196.492V36.244H195.772V28.216ZM194.104 27.352H194.872V32.2C194.872 32.928 194.852 33.632 194.812 34.312C194.78 34.984 194.7 35.624 194.572 36.232C194.452 36.832 194.26 37.404 193.996 37.948C193.956 37.892 193.896 37.828 193.816 37.756C193.736 37.684 193.656 37.616 193.576 37.552C193.504 37.488 193.432 37.436 193.36 37.396C193.696 36.66 193.904 35.856 193.984 34.984C194.064 34.104 194.104 33.176 194.104 32.2V27.352ZM206.68 31.348H215.356V32.224H206.68V31.348ZM206.08 28.672H215.896V29.572H206.08V28.672ZM205.636 34.168H216.376V35.068H205.636V34.168ZM210.52 26.908H211.468V37.936H210.52V26.908ZM195.04 41.92H195.94V52.948H195.04V41.92ZM193.96 44.236L194.644 44.332C194.628 44.66 194.592 45.02 194.536 45.412C194.488 45.796 194.42 46.18 194.332 46.564C194.252 46.94 194.156 47.276 194.044 47.572L193.336 47.32C193.448 47.056 193.544 46.744 193.624 46.384C193.712 46.024 193.784 45.656 193.84 45.28C193.896 44.904 193.936 44.556 193.96 44.236ZM195.964 44.128L196.6 43.852C196.728 44.084 196.852 44.336 196.972 44.608C197.1 44.872 197.212 45.128 197.308 45.376C197.404 45.624 197.476 45.844 197.524 46.036L196.852 46.372C196.804 46.18 196.732 45.956 196.636 45.7C196.54 45.436 196.432 45.168 196.312 44.896C196.2 44.616 196.084 44.36 195.964 44.128ZM197.608 43.828H203.548V47.92H202.66V44.68H197.608V43.828ZM196.96 47.428H204.58V48.304H196.96V47.428ZM200.992 47.608C201.184 48.304 201.448 48.956 201.784 49.564C202.12 50.164 202.528 50.688 203.008 51.136C203.496 51.584 204.056 51.924 204.688 52.156C204.616 52.22 204.536 52.3 204.448 52.396C204.368 52.492 204.292 52.592 204.22 52.696C204.148 52.808 204.088 52.908 204.04 52.996C203.376 52.7 202.796 52.3 202.3 51.796C201.804 51.284 201.384 50.688 201.04 50.008C200.696 49.328 200.416 48.588 200.2 47.788L200.992 47.608ZM199.96 41.92H200.86V45.916C200.86 46.388 200.836 46.876 200.788 47.38C200.748 47.884 200.66 48.392 200.524 48.904C200.396 49.408 200.2 49.904 199.936 50.392C199.672 50.88 199.316 51.348 198.868 51.796C198.428 52.236 197.872 52.64 197.2 53.008C197.16 52.936 197.104 52.856 197.032 52.768C196.96 52.688 196.88 52.604 196.792 52.516C196.712 52.436 196.636 52.368 196.564 52.312C197.22 51.976 197.756 51.612 198.172 51.22C198.596 50.82 198.928 50.4 199.168 49.96C199.416 49.512 199.592 49.06 199.696 48.604C199.808 48.14 199.88 47.68 199.912 47.224C199.944 46.768 199.96 46.332 199.96 45.916V41.92ZM209.608 47.188H215.656V47.92H209.608V47.188ZM215.392 47.188H216.208C216.208 47.188 216.204 47.228 216.196 47.308C216.196 47.388 216.192 47.456 216.184 47.512C216.136 48.24 216.08 48.776 216.016 49.12C215.96 49.464 215.872 49.7 215.752 49.828C215.664 49.916 215.568 49.984 215.464 50.032C215.368 50.072 215.244 50.096 215.092 50.104C214.972 50.12 214.808 50.128 214.6 50.128C214.392 50.12 214.172 50.112 213.94 50.104C213.932 49.984 213.908 49.856 213.868 49.72C213.828 49.576 213.776 49.452 213.712 49.348C213.936 49.364 214.144 49.376 214.336 49.384C214.528 49.392 214.664 49.396 214.744 49.396C214.912 49.396 215.028 49.364 215.092 49.3C215.156 49.22 215.212 49.036 215.26 48.748C215.308 48.452 215.352 47.968 215.392 47.296V47.188ZM209.044 43.468H215.728V46.084H209.92V45.328H214.948V44.224H209.044V43.468ZM209.488 45.328H210.304C210.272 45.624 210.232 45.928 210.184 46.24C210.136 46.552 210.088 46.856 210.04 47.152C209.992 47.44 209.94 47.696 209.884 47.92H209.104C209.16 47.68 209.212 47.416 209.26 47.128C209.308 46.832 209.352 46.528 209.392 46.216C209.432 45.904 209.464 45.608 209.488 45.328ZM210.184 42.196L210.904 41.884C211.088 42.076 211.26 42.3 211.42 42.556C211.58 42.804 211.696 43.02 211.768 43.204L211 43.576C210.936 43.392 210.824 43.168 210.664 42.904C210.512 42.64 210.352 42.404 210.184 42.196ZM214.048 41.908L214.936 42.148C214.744 42.46 214.544 42.768 214.336 43.072C214.136 43.368 213.944 43.628 213.76 43.852L213.016 43.624C213.136 43.464 213.26 43.288 213.388 43.096C213.524 42.896 213.648 42.692 213.76 42.484C213.872 42.268 213.968 42.076 214.048 41.908ZM211.864 47.524L212.644 47.776C212.276 48.368 211.788 48.908 211.18 49.396C210.58 49.876 209.916 50.276 209.188 50.596C209.148 50.54 209.092 50.476 209.02 50.404C208.956 50.324 208.888 50.252 208.816 50.188C208.744 50.116 208.676 50.056 208.612 50.008C209.316 49.72 209.96 49.36 210.544 48.928C211.128 48.488 211.568 48.02 211.864 47.524ZM212.08 43.792H212.968V51.172H212.08V43.792ZM205.972 42.808L206.74 42.436C206.924 42.652 207.112 42.888 207.304 43.144C207.504 43.392 207.684 43.64 207.844 43.888C208.012 44.128 208.148 44.348 208.252 44.548L207.436 44.968C207.34 44.776 207.212 44.556 207.052 44.308C206.892 44.052 206.716 43.792 206.524 43.528C206.34 43.264 206.156 43.024 205.972 42.808ZM208.072 46.408V50.8H207.208V47.284H205.6V46.408H208.072ZM207.628 50.38C207.82 50.38 208.004 50.456 208.18 50.608C208.364 50.752 208.624 50.924 208.96 51.124C209.352 51.364 209.808 51.52 210.328 51.592C210.848 51.656 211.448 51.688 212.128 51.688C212.488 51.688 212.864 51.684 213.256 51.676C213.656 51.66 214.052 51.644 214.444 51.628C214.844 51.604 215.224 51.58 215.584 51.556C215.952 51.524 216.288 51.488 216.592 51.448C216.552 51.528 216.512 51.628 216.472 51.748C216.432 51.86 216.396 51.976 216.364 52.096C216.34 52.216 216.324 52.32 216.316 52.408C216.092 52.424 215.804 52.436 215.452 52.444C215.1 52.46 214.72 52.476 214.312 52.492C213.904 52.508 213.504 52.516 213.112 52.516C212.728 52.524 212.392 52.528 212.104 52.528C211.36 52.528 210.72 52.484 210.184 52.396C209.656 52.316 209.18 52.148 208.756 51.892C208.508 51.74 208.284 51.584 208.084 51.424C207.892 51.264 207.732 51.184 207.604 51.184C207.484 51.184 207.348 51.256 207.196 51.4C207.044 51.536 206.88 51.72 206.704 51.952C206.536 52.176 206.364 52.42 206.188 52.684L205.576 51.844C205.952 51.412 206.316 51.06 206.668 50.788C207.028 50.516 207.348 50.38 207.628 50.38Z" fill="black"/>
<path d="M282.293 21.7071C282.683 22.0976 283.317 22.0976 283.707 21.7071L290.071 15.3431C290.462 14.9526 290.462 14.3195 290.071 13.9289C289.681 13.5384 289.047 13.5384 288.657 13.9289L283 19.5858L277.343 13.9289C276.953 13.5384 276.319 13.5384 275.929 13.9289C275.538 14.3195 275.538 14.9526 275.929 15.3431L282.293 21.7071ZM283 1L282 1L282 21L283 21L284 21L284 1L283 1Z" fill="black"/>
</svg>
