<svg width="1133" height="619" viewBox="0 0 1133 619" fill="none" xmlns="http://www.w3.org/2000/svg">
<rect x="489" y="1" width="643" height="380" fill="white" stroke="#757575" stroke-width="1.41262"/>
<rect x="1" y="1" width="488" height="380" fill="white" stroke="#757575" stroke-width="1.41262"/>
<rect x="1" y="518" width="1131" height="100" fill="white" stroke="#757575" stroke-width="1.41262"/>
<rect x="849" y="331" width="90" height="50" fill="#FFE9BD" stroke="#757575" stroke-width="1.41262"/>
<rect x="1012" y="1" width="120" height="50" fill="#FFE9BD" stroke="#757575" stroke-width="1.41262"/>
<path d="M858.4 363.518H876.756V365.442H858.4V363.518ZM866.356 343.29H868.384L868.384 364.636H866.356L866.356 343.29ZM857.438 356.29H859.388V367.08H857.438V356.29ZM875.716 356.29H877.718V367.028H875.716V356.29ZM858.426 345.63H860.376V352.728H874.65V345.63H876.678V354.6H858.426L858.426 345.63ZM887.26 350.726L904.212 350.726V352.494L887.26 352.494V350.726ZM886.532 361.256L905.304 361.256V363.076L886.532 363.076V361.256ZM895.918 353.768H897.842L897.842 367.054H895.918L895.918 353.768ZM888.95 358.63C888.915 358.491 888.855 358.309 888.768 358.084C888.699 357.841 888.621 357.599 888.534 357.356C888.447 357.113 888.361 356.905 888.274 356.732C888.517 356.68 888.751 356.524 888.976 356.264C889.201 355.987 889.444 355.631 889.704 355.198C889.843 355.007 890.042 354.678 890.302 354.21C890.579 353.725 890.883 353.161 891.212 352.52C891.541 351.861 891.862 351.159 892.174 350.414C892.503 349.669 892.789 348.915 893.032 348.152L895.034 348.854C894.601 349.894 894.115 350.943 893.578 352C893.058 353.04 892.512 354.037 891.94 354.99C891.368 355.926 890.805 356.775 890.25 357.538V357.564C890.25 357.564 890.181 357.599 890.042 357.668C889.921 357.737 889.773 357.833 889.6 357.954C889.427 358.058 889.271 358.171 889.132 358.292C889.011 358.413 888.95 358.526 888.95 358.63ZM888.95 358.63V357.096L890.068 356.498H903.588V358.266H891.394C890.735 358.266 890.189 358.301 889.756 358.37C889.34 358.439 889.071 358.526 888.95 358.63ZM884.608 345.786L905.252 345.786V347.632L884.608 347.632V345.786ZM883.646 345.786H885.57V353.3C885.57 354.305 885.535 355.406 885.466 356.602C885.414 357.798 885.301 359.029 885.128 360.294C884.955 361.542 884.695 362.755 884.348 363.934C884.001 365.113 883.542 366.205 882.97 367.21C882.866 367.089 882.71 366.95 882.502 366.794C882.294 366.655 882.086 366.517 881.878 366.378C881.67 366.239 881.479 366.144 881.306 366.092C881.843 365.156 882.268 364.151 882.58 363.076C882.892 361.984 883.126 360.866 883.282 359.722C883.438 358.578 883.533 357.46 883.568 356.368C883.62 355.259 883.646 354.236 883.646 353.3V345.786ZM892.694 343.654L894.592 343.16C894.939 343.611 895.268 344.131 895.58 344.72C895.892 345.292 896.117 345.786 896.256 346.202L894.254 346.8C894.133 346.384 893.925 345.881 893.63 345.292C893.353 344.685 893.041 344.139 892.694 343.654ZM912.116 364.038H926.754V365.91H912.116V364.038ZM911.206 355.978H927.794L927.794 367.028H925.714V357.85H913.208V367.08H911.206V355.978ZM916.432 343.056L918.59 343.81C918.07 344.815 917.489 345.864 916.848 346.956C916.224 348.031 915.591 349.071 914.95 350.076C914.309 351.064 913.693 351.939 913.104 352.702L911.388 351.974C911.977 351.211 912.584 350.319 913.208 349.296C913.832 348.256 914.421 347.19 914.976 346.098C915.548 345.006 916.033 343.992 916.432 343.056ZM922.698 347.268L924.232 346.15C925.116 346.843 926.017 347.623 926.936 348.49C927.855 349.339 928.695 350.206 929.458 351.09C930.238 351.957 930.853 352.745 931.304 353.456L929.614 354.756C929.198 354.045 928.609 353.248 927.846 352.364C927.101 351.48 926.277 350.596 925.376 349.712C924.475 348.811 923.582 347.996 922.698 347.268ZM908.138 351.142C909.369 351.107 910.773 351.064 912.35 351.012C913.927 350.943 915.609 350.873 917.394 350.804C919.197 350.735 921.034 350.657 922.906 350.57C924.795 350.483 926.659 350.405 928.496 350.336L928.392 352.208C926.572 352.312 924.735 352.407 922.88 352.494C921.043 352.563 919.24 352.641 917.472 352.728C915.704 352.815 914.04 352.893 912.48 352.962C910.92 353.014 909.525 353.066 908.294 353.118L908.138 351.142Z" fill="black"/>
<path d="M1028.97 25.38L1030.69 25.38C1030.69 25.38 1030.69 25.484 1030.69 25.692C1030.69 25.9 1030.68 26.0647 1030.66 26.186C1030.52 28.4393 1030.37 30.2507 1030.22 31.62C1030.08 32.9893 1029.91 34.038 1029.72 34.766C1029.53 35.494 1029.31 36.0053 1029.05 36.3C1028.82 36.56 1028.58 36.7333 1028.32 36.82C1028.06 36.924 1027.74 36.9933 1027.36 37.028C1027.01 37.0627 1026.55 37.08 1025.98 37.08C1025.43 37.08 1024.83 37.054 1024.19 37.002C1024.17 36.7767 1024.12 36.4993 1024.03 36.17C1023.94 35.858 1023.83 35.598 1023.69 35.39C1024.33 35.442 1024.92 35.468 1025.46 35.468C1026.01 35.4853 1026.41 35.494 1026.66 35.494C1026.86 35.494 1027.04 35.4767 1027.18 35.442C1027.33 35.4247 1027.46 35.3467 1027.57 35.208C1027.79 35 1027.98 34.5667 1028.14 33.908C1028.29 33.232 1028.44 32.2353 1028.58 30.918C1028.72 29.5833 1028.85 27.8413 1028.97 25.692V25.38ZM1020.91 31.23C1021.79 31.0393 1022.83 30.7967 1024.03 30.502C1025.24 30.19 1026.48 29.8607 1027.75 29.514L1027.93 31.022C1026.77 31.3513 1025.62 31.6807 1024.47 32.01C1023.33 32.322 1022.27 32.608 1021.3 32.868L1020.91 31.23ZM1021.61 13.862L1028.48 13.862V15.578L1021.61 15.578V13.862ZM1027.96 13.862L1029.67 13.862C1029.6 14.8153 1029.52 15.8293 1029.44 16.904C1029.35 17.9787 1029.26 19.0533 1029.15 20.128C1029.07 21.2027 1028.97 22.2253 1028.87 23.196C1028.78 24.1493 1028.68 24.99 1028.58 25.718L1026.86 25.822C1026.97 25.0593 1027.07 24.1927 1027.18 23.222C1027.3 22.234 1027.4 21.2027 1027.49 20.128C1027.59 19.036 1027.68 17.9527 1027.75 16.878C1027.83 15.8033 1027.9 14.798 1027.96 13.862ZM1022.63 18.022L1024.34 18.126C1024.27 19.0793 1024.19 20.102 1024.08 21.194C1024 22.286 1023.9 23.3433 1023.8 24.366C1023.69 25.3713 1023.59 26.2467 1023.48 26.992L1021.82 26.992C1021.92 26.2293 1022.03 25.328 1022.13 24.288C1022.24 23.248 1022.33 22.182 1022.42 21.09C1022.5 19.9807 1022.57 18.958 1022.63 18.022ZM1022.39 25.406L1029.15 25.406V26.992L1022.39 26.992V25.406ZM1031.18 14.564L1042.62 14.564V16.332L1031.18 16.332V14.564ZM1042.26 14.564H1042.59L1042.93 14.486L1044.13 15.11C1043.52 16.3753 1042.75 17.528 1041.81 18.568C1040.9 19.608 1039.86 20.544 1038.69 21.376C1037.53 22.208 1036.31 22.936 1035.03 23.56C1033.76 24.1667 1032.49 24.6693 1031.21 25.068C1031.1 24.8253 1030.95 24.548 1030.74 24.236C1030.53 23.924 1030.33 23.6813 1030.14 23.508C1031.35 23.1787 1032.58 22.7453 1033.81 22.208C1035.04 21.6533 1036.2 21.012 1037.29 20.284C1038.38 19.5387 1039.35 18.7153 1040.2 17.814C1041.07 16.9127 1041.75 15.9333 1042.26 14.876V14.564ZM1033.73 15.344C1034.42 16.6787 1035.34 17.892 1036.48 18.984C1037.63 20.076 1038.95 21.012 1040.44 21.792C1041.94 22.5547 1043.56 23.144 1045.3 23.56C1045.16 23.6813 1045.01 23.8373 1044.86 24.028C1044.7 24.2187 1044.55 24.418 1044.41 24.626C1044.28 24.8167 1044.16 24.9987 1044.08 25.172C1042.31 24.6693 1040.66 23.9847 1039.14 23.118C1037.63 22.2513 1036.28 21.2113 1035.11 19.998C1033.93 18.7673 1032.97 17.398 1032.22 15.89L1033.73 15.344ZM1031.83 26.576L1043.5 26.576V28.344L1031.83 28.344V26.576ZM1030.84 31.048L1044.7 31.048V32.816L1030.84 32.816V31.048ZM1036.8 24.288L1038.64 24.288V37.028L1036.8 37.028V24.288ZM1047.48 18.308L1057.52 18.308V20.154L1047.48 20.154V18.308ZM1051.62 13.498L1053.46 13.498V19.244L1051.62 19.244V13.498ZM1063.5 18.542L1070.96 18.542V20.414L1063.5 20.414V18.542ZM1059.03 33.986L1068.85 33.986V35.806L1059.03 35.806V33.986ZM1062.51 13.134L1064.51 13.134V26.394L1062.51 26.394V13.134ZM1058.14 25.588L1069.87 25.588V36.95H1067.89V27.434L1060.04 27.434V37.054H1058.14V25.588ZM1046.99 32.192C1047.89 32.0187 1048.92 31.8107 1050.08 31.568C1051.24 31.308 1052.48 31.0307 1053.8 30.736C1055.12 30.4413 1056.43 30.1467 1057.73 29.852L1057.91 31.672C1056.68 31.9493 1055.44 32.244 1054.19 32.556C1052.94 32.8507 1051.74 33.1367 1050.58 33.414C1049.43 33.674 1048.38 33.9167 1047.43 34.142L1046.99 32.192ZM1048.5 21.506L1050.08 21.22C1050.31 22.1733 1050.5 23.196 1050.65 24.288C1050.83 25.38 1050.97 26.4547 1051.07 27.512C1051.17 28.552 1051.23 29.488 1051.23 30.32L1049.54 30.632C1049.54 29.8 1049.48 28.864 1049.38 27.824C1049.29 26.7667 1049.17 25.692 1049.02 24.6C1048.86 23.508 1048.69 22.4767 1048.5 21.506ZM1054.55 20.934L1056.45 21.298C1056.31 22.39 1056.14 23.5513 1055.93 24.782C1055.74 25.9953 1055.53 27.174 1055.31 28.318C1055.1 29.462 1054.89 30.4587 1054.68 31.308L1053.05 30.944C1053.2 30.2853 1053.35 29.54 1053.49 28.708C1053.64 27.876 1053.78 27.0093 1053.9 26.108C1054.04 25.1893 1054.16 24.288 1054.27 23.404C1054.39 22.52 1054.48 21.6967 1054.55 20.934ZM1073.38 17.268L1096.62 17.268V19.062L1073.38 19.062V17.268ZM1076.06 25.64L1083.36 25.64V27.174L1076.06 27.174V25.64ZM1076.06 29.8L1083.36 29.8V31.334L1076.06 31.334V29.8ZM1087.7 21.636H1089.52V32.296L1087.7 32.296V21.636ZM1082.63 21.402L1084.53 21.402V34.844C1084.53 35.3293 1084.46 35.7107 1084.32 35.988C1084.2 36.2653 1083.96 36.482 1083.6 36.638C1083.23 36.794 1082.76 36.8893 1082.17 36.924C1081.59 36.9587 1080.87 36.976 1079.98 36.976C1079.93 36.7333 1079.83 36.4387 1079.7 36.092C1079.57 35.7627 1079.44 35.4767 1079.31 35.234C1079.96 35.2513 1080.56 35.26 1081.1 35.26C1081.64 35.2773 1081.99 35.2773 1082.17 35.26C1082.36 35.26 1082.48 35.2253 1082.53 35.156C1082.6 35.0867 1082.63 34.974 1082.63 34.818V21.402ZM1092.98 20.856L1094.91 20.856V34.662C1094.91 35.2167 1094.83 35.6413 1094.67 35.936C1094.52 36.248 1094.23 36.482 1093.81 36.638C1093.42 36.794 1092.88 36.8893 1092.2 36.924C1091.54 36.976 1090.71 36.9933 1089.71 36.976C1089.65 36.716 1089.56 36.404 1089.42 36.04C1089.28 35.6933 1089.14 35.3813 1089 35.104C1089.78 35.1387 1090.49 35.156 1091.14 35.156C1091.78 35.156 1092.21 35.1473 1092.44 35.13C1092.64 35.13 1092.78 35.0953 1092.85 35.026C1092.94 34.9567 1092.98 34.8267 1092.98 34.636V20.856ZM1077.41 13.784L1079.23 13.134C1079.73 13.6713 1080.22 14.2867 1080.71 14.98C1081.2 15.6733 1081.57 16.2713 1081.83 16.774L1079.9 17.502C1079.7 16.9993 1079.35 16.4013 1078.86 15.708C1078.4 14.9973 1077.91 14.356 1077.41 13.784ZM1090.8 13.03L1092.88 13.706C1092.39 14.5207 1091.86 15.344 1091.29 16.176C1090.74 17.008 1090.23 17.7273 1089.76 18.334L1088.02 17.71C1088.35 17.2767 1088.68 16.7913 1089.03 16.254C1089.38 15.6993 1089.7 15.1447 1089.99 14.59C1090.3 14.018 1090.57 13.498 1090.8 13.03ZM1075.02 21.402L1083.26 21.402V23.066L1076.86 23.066V36.95H1075.02V21.402ZM1103.62 34.038L1118.25 34.038V35.91L1103.62 35.91V34.038ZM1102.71 25.978L1119.29 25.978V37.028H1117.21V27.85L1104.71 27.85V37.08L1102.71 37.08V25.978ZM1107.93 13.056L1110.09 13.81C1109.57 14.8153 1108.99 15.864 1108.35 16.956C1107.72 18.0307 1107.09 19.0707 1106.45 20.076C1105.81 21.064 1105.19 21.9393 1104.6 22.702L1102.89 21.974C1103.48 21.2113 1104.08 20.3187 1104.71 19.296C1105.33 18.256 1105.92 17.19 1106.48 16.098C1107.05 15.006 1107.53 13.992 1107.93 13.056ZM1114.2 17.268L1115.73 16.15C1116.62 16.8433 1117.52 17.6233 1118.44 18.49C1119.35 19.3393 1120.2 20.206 1120.96 21.09C1121.74 21.9567 1122.35 22.7453 1122.8 23.456L1121.11 24.756C1120.7 24.0453 1120.11 23.248 1119.35 22.364C1118.6 21.48 1117.78 20.596 1116.88 19.712C1115.97 18.8107 1115.08 17.996 1114.2 17.268ZM1099.64 21.142C1100.87 21.1073 1102.27 21.064 1103.85 21.012C1105.43 20.9427 1107.11 20.8733 1108.89 20.804C1110.7 20.7347 1112.53 20.6567 1114.41 20.57C1116.3 20.4833 1118.16 20.4053 1120 20.336L1119.89 22.208C1118.07 22.312 1116.23 22.4073 1114.38 22.494C1112.54 22.5633 1110.74 22.6413 1108.97 22.728C1107.2 22.8147 1105.54 22.8927 1103.98 22.962C1102.42 23.014 1101.02 23.066 1099.79 23.118L1099.64 21.142Z" fill="black"/>
<rect width="90" height="50" transform="matrix(1 -5.61079e-08 -5.51826e-08 -1 361 518)" fill="#FFE9BD" stroke="#757575" stroke-width="1.37742"/>
<rect width="90" height="50" transform="matrix(1 -5.61079e-08 -5.51826e-08 -1 271 518)" fill="#FFE9BD" stroke="#757575" stroke-width="1.37742"/>
<path d="M389.886 480.727L389.886 504L387.068 504L387.068 483.682L386.932 483.682L381.25 487.455L381.25 484.591L387.068 480.727L389.886 480.727ZM395.972 504L395.972 501.955L403.653 493.545C404.555 492.561 405.297 491.705 405.881 490.977C406.464 490.242 406.896 489.553 407.176 488.909C407.464 488.258 407.608 487.576 407.608 486.864C407.608 486.045 407.411 485.337 407.017 484.739C406.631 484.14 406.1 483.678 405.426 483.352C404.752 483.027 403.994 482.864 403.153 482.864C402.259 482.864 401.479 483.049 400.813 483.42C400.153 483.784 399.642 484.295 399.278 484.955C398.922 485.614 398.744 486.386 398.744 487.273L396.063 487.273C396.063 485.909 396.377 484.712 397.006 483.682C397.634 482.652 398.491 481.848 399.574 481.273C400.665 480.697 401.888 480.409 403.244 480.409C404.608 480.409 405.816 480.697 406.869 481.273C407.922 481.848 408.748 482.625 409.347 483.602C409.945 484.58 410.244 485.667 410.244 486.864C410.244 487.72 410.089 488.557 409.778 489.375C409.475 490.186 408.945 491.091 408.188 492.091C407.438 493.083 406.396 494.295 405.063 495.727L399.835 501.318L399.835 501.5L410.653 501.5L410.653 504L395.972 504ZM414.739 504L414.739 501.955L422.42 493.545C423.322 492.561 424.064 491.705 424.648 490.977C425.231 490.242 425.663 489.553 425.943 488.909C426.231 488.258 426.375 487.576 426.375 486.864C426.375 486.045 426.178 485.337 425.784 484.739C425.398 484.14 424.867 483.678 424.193 483.352C423.519 483.027 422.761 482.864 421.92 482.864C421.026 482.864 420.246 483.049 419.579 483.42C418.92 483.784 418.409 484.295 418.045 484.955C417.689 485.614 417.511 486.386 417.511 487.273L414.829 487.273C414.829 485.909 415.144 484.712 415.773 483.682C416.401 482.652 417.258 481.848 418.341 481.273C419.432 480.697 420.655 480.409 422.011 480.409C423.375 480.409 424.583 480.697 425.636 481.273C426.689 481.848 427.515 482.625 428.114 483.602C428.712 484.58 429.011 485.667 429.011 486.864C429.011 487.72 428.856 488.557 428.545 489.375C428.242 490.186 427.712 491.091 426.954 492.091C426.204 493.083 425.163 494.295 423.829 495.727L418.602 501.318L418.602 501.5L429.42 501.5L429.42 504L414.739 504Z" fill="black"/>
<path d="M299.386 480.727L299.386 504L296.568 504L296.568 483.682L296.432 483.682L290.75 487.455L290.75 484.591L296.568 480.727L299.386 480.727ZM305.472 504L305.472 501.955L313.153 493.545C314.055 492.561 314.797 491.705 315.381 490.977C315.964 490.242 316.396 489.553 316.676 488.909C316.964 488.258 317.108 487.576 317.108 486.864C317.108 486.045 316.911 485.337 316.517 484.739C316.131 484.14 315.6 483.678 314.926 483.352C314.252 483.027 313.494 482.864 312.653 482.864C311.759 482.864 310.979 483.049 310.313 483.42C309.653 483.784 309.142 484.295 308.778 484.955C308.422 485.614 308.244 486.386 308.244 487.273L305.563 487.273C305.563 485.909 305.877 484.712 306.506 483.682C307.134 482.652 307.991 481.848 309.074 481.273C310.165 480.697 311.388 480.409 312.744 480.409C314.108 480.409 315.316 480.697 316.369 481.273C317.422 481.848 318.248 482.625 318.847 483.602C319.445 484.58 319.744 485.667 319.744 486.864C319.744 487.72 319.589 488.557 319.278 489.375C318.975 490.186 318.445 491.091 317.688 492.091C316.938 493.083 315.896 494.295 314.563 495.727L309.335 501.318L309.335 501.5L320.153 501.5L320.153 504L305.472 504ZM332.102 504.318C330.602 504.318 329.265 504.061 328.091 503.545C326.924 503.03 325.996 502.314 325.307 501.398C324.625 500.473 324.254 499.402 324.193 498.182L327.057 498.182C327.117 498.932 327.375 499.58 327.829 500.125C328.284 500.663 328.879 501.08 329.614 501.375C330.348 501.67 331.163 501.818 332.057 501.818C333.057 501.818 333.943 501.644 334.716 501.295C335.489 500.947 336.095 500.462 336.534 499.841C336.973 499.22 337.193 498.5 337.193 497.682C337.193 496.826 336.981 496.072 336.557 495.42C336.133 494.761 335.511 494.246 334.693 493.875C333.875 493.504 332.875 493.318 331.693 493.318L329.829 493.318L329.829 490.818L331.693 490.818C332.617 490.818 333.428 490.652 334.125 490.318C334.829 489.985 335.379 489.515 335.773 488.909C336.174 488.303 336.375 487.591 336.375 486.773C336.375 485.985 336.201 485.299 335.852 484.716C335.504 484.133 335.011 483.678 334.375 483.352C333.746 483.027 333.004 482.864 332.148 482.864C331.345 482.864 330.587 483.011 329.875 483.307C329.17 483.595 328.595 484.015 328.148 484.568C327.701 485.114 327.458 485.773 327.42 486.545L324.693 486.545C324.739 485.326 325.106 484.258 325.795 483.341C326.485 482.417 327.386 481.697 328.5 481.182C329.621 480.667 330.852 480.409 332.193 480.409C333.633 480.409 334.867 480.701 335.898 481.284C336.928 481.86 337.72 482.621 338.273 483.568C338.826 484.515 339.102 485.538 339.102 486.636C339.102 487.947 338.758 489.064 338.068 489.989C337.386 490.913 336.458 491.553 335.284 491.909L335.284 492.091C336.754 492.333 337.901 492.958 338.727 493.966C339.553 494.966 339.966 496.205 339.966 497.682C339.966 498.947 339.621 500.083 338.932 501.091C338.25 502.091 337.318 502.879 336.136 503.455C334.955 504.03 333.61 504.318 332.102 504.318Z" fill="black"/>
<rect width="90" height="50" transform="matrix(1 -5.61079e-08 -5.51826e-08 -1 1 518)" fill="#FFE9BD" stroke="#757575" stroke-width="1.37742"/>
<rect width="90" height="50" transform="matrix(1 -5.61079e-08 -5.51826e-08 -1 91 518)" fill="#FFE9BD" stroke="#757575" stroke-width="1.37742"/>
<rect width="90" height="50" transform="matrix(1 -5.61079e-08 -5.51826e-08 -1 181 518)" fill="#FFE9BD" stroke="#757575" stroke-width="1.37742"/>
<path d="M30.0895 481.727L30.0895 505L27.2714 505L27.2714 484.682L27.135 484.682L21.4532 488.455L21.4532 485.591L27.2714 481.727L30.0895 481.727ZM36.1747 505L36.1747 502.955L43.8565 494.545C44.7581 493.561 45.5005 492.705 46.0838 491.977C46.6671 491.242 47.099 490.553 47.3793 489.909C47.6671 489.258 47.8111 488.576 47.8111 487.864C47.8111 487.045 47.6141 486.337 47.2202 485.739C46.8338 485.14 46.3035 484.678 45.6293 484.352C44.955 484.027 44.1974 483.864 43.3565 483.864C42.4626 483.864 41.6823 484.049 41.0156 484.42C40.3565 484.784 39.8452 485.295 39.4815 485.955C39.1255 486.614 38.9474 487.386 38.9474 488.273L36.2656 488.273C36.2656 486.909 36.58 485.712 37.2088 484.682C37.8376 483.652 38.6937 482.848 39.777 482.273C40.8679 481.697 42.0914 481.409 43.4474 481.409C44.8111 481.409 46.0194 481.697 47.0724 482.273C48.1255 482.848 48.9512 483.625 49.5497 484.602C50.1482 485.58 50.4474 486.667 50.4474 487.864C50.4474 488.72 50.2921 489.557 49.9815 490.375C49.6785 491.186 49.1482 492.091 48.3906 493.091C47.6406 494.083 46.599 495.295 45.2656 496.727L40.0384 502.318L40.0384 502.5L50.8565 502.5L50.8565 505L36.1747 505ZM62.669 505.318C61.7144 505.303 60.7599 505.121 59.8054 504.773C58.8508 504.424 57.9796 503.837 57.1917 503.011C56.4038 502.178 55.7713 501.053 55.294 499.636C54.8167 498.212 54.5781 496.424 54.5781 494.273C54.5781 492.212 54.7713 490.386 55.1576 488.795C55.544 487.197 56.1046 485.852 56.8394 484.761C57.5743 483.663 58.4607 482.83 59.4985 482.261C60.544 481.693 61.722 481.409 63.0326 481.409C64.3357 481.409 65.4947 481.67 66.5099 482.193C67.5326 482.708 68.366 483.428 69.0099 484.352C69.6538 485.277 70.0705 486.341 70.2599 487.545L67.4872 487.545C67.2296 486.5 66.7296 485.633 65.9872 484.943C65.2447 484.254 64.2599 483.909 63.0326 483.909C61.2296 483.909 59.8091 484.693 58.7713 486.261C57.741 487.83 57.222 490.03 57.2144 492.864L57.3963 492.864C57.8205 492.22 58.3243 491.67 58.9076 491.216C59.4985 490.754 60.15 490.398 60.8622 490.148C61.5743 489.898 62.3281 489.773 63.1235 489.773C64.4569 489.773 65.6766 490.106 66.7826 490.773C67.8887 491.432 68.775 492.345 69.4417 493.511C70.1084 494.67 70.4417 496 70.4417 497.5C70.4417 498.939 70.1197 500.258 69.4758 501.455C68.8319 502.644 67.9266 503.591 66.7599 504.295C65.6008 504.992 64.2372 505.333 62.669 505.318ZM62.669 502.818C63.6235 502.818 64.4796 502.58 65.2372 502.102C66.0023 501.625 66.6046 500.985 67.044 500.182C67.491 499.379 67.7144 498.485 67.7144 497.5C67.7144 496.538 67.4985 495.663 67.0667 494.875C66.6425 494.08 66.0554 493.447 65.3054 492.977C64.5629 492.508 63.7144 492.273 62.7599 492.273C62.0402 492.273 61.3697 492.417 60.7485 492.705C60.1273 492.985 59.5819 493.371 59.1122 493.864C58.65 494.356 58.2864 494.92 58.0213 495.557C57.7561 496.186 57.6235 496.848 57.6235 497.545C57.6235 498.47 57.8394 499.333 58.2713 500.136C58.7107 500.939 59.3091 501.587 60.0667 502.08C60.8319 502.572 61.6993 502.818 62.669 502.818Z" fill="black"/>
<path d="M120.34 480.727L120.34 504L117.521 504L117.521 483.682L117.385 483.682L111.703 487.455L111.703 484.591L117.521 480.727L120.34 480.727ZM126.425 504L126.425 501.955L134.107 493.545C135.008 492.561 135.75 491.705 136.334 490.977C136.917 490.242 137.349 489.553 137.629 488.909C137.917 488.258 138.061 487.576 138.061 486.864C138.061 486.045 137.864 485.337 137.47 484.739C137.084 484.14 136.554 483.678 135.879 483.352C135.205 483.027 134.447 482.864 133.607 482.864C132.713 482.864 131.932 483.049 131.266 483.42C130.607 483.784 130.095 484.295 129.732 484.955C129.375 485.614 129.197 486.386 129.197 487.273L126.516 487.273C126.516 485.909 126.83 484.712 127.459 483.682C128.088 482.652 128.944 481.848 130.027 481.273C131.118 480.697 132.341 480.409 133.697 480.409C135.061 480.409 136.269 480.697 137.322 481.273C138.375 481.848 139.201 482.625 139.8 483.602C140.398 484.58 140.697 485.667 140.697 486.864C140.697 487.72 140.542 488.557 140.232 489.375C139.929 490.186 139.398 491.091 138.641 492.091C137.891 493.083 136.849 494.295 135.516 495.727L130.288 501.318L130.288 501.5L141.107 501.5L141.107 504L126.425 504ZM152.464 504.318C151.131 504.318 149.93 504.053 148.862 503.523C147.794 502.992 146.938 502.265 146.294 501.341C145.65 500.417 145.298 499.364 145.237 498.182L147.964 498.182C148.071 499.235 148.548 500.106 149.396 500.795C150.252 501.477 151.275 501.818 152.464 501.818C153.419 501.818 154.267 501.595 155.01 501.148C155.76 500.701 156.347 500.087 156.771 499.307C157.203 498.519 157.419 497.629 157.419 496.636C157.419 495.621 157.196 494.716 156.749 493.92C156.309 493.117 155.703 492.485 154.93 492.023C154.158 491.561 153.275 491.326 152.283 491.318C151.571 491.311 150.839 491.42 150.089 491.648C149.339 491.867 148.722 492.152 148.237 492.5L145.601 492.182L147.01 480.727L159.101 480.727L159.101 483.227L149.374 483.227L148.555 490.091L148.692 490.091C149.169 489.712 149.767 489.398 150.487 489.148C151.207 488.898 151.957 488.773 152.737 488.773C154.161 488.773 155.43 489.114 156.544 489.795C157.665 490.47 158.544 491.394 159.18 492.568C159.824 493.742 160.146 495.083 160.146 496.591C160.146 498.076 159.813 499.402 159.146 500.568C158.487 501.727 157.578 502.644 156.419 503.318C155.26 503.985 153.942 504.318 152.464 504.318Z" fill="black"/>
<path d="M209.558 481.727L209.558 505L206.74 505L206.74 484.682L206.604 484.682L200.922 488.455L200.922 485.591L206.74 481.727L209.558 481.727ZM215.643 505L215.643 502.955L223.325 494.545C224.227 493.561 224.969 492.705 225.553 491.977C226.136 491.242 226.568 490.553 226.848 489.909C227.136 489.258 227.28 488.576 227.28 487.864C227.28 487.045 227.083 486.337 226.689 485.739C226.303 485.14 225.772 484.678 225.098 484.352C224.424 484.027 223.666 483.864 222.825 483.864C221.931 483.864 221.151 484.049 220.484 484.42C219.825 484.784 219.314 485.295 218.95 485.955C218.594 486.614 218.416 487.386 218.416 488.273L215.734 488.273C215.734 486.909 216.049 485.712 216.678 484.682C217.306 483.652 218.162 482.848 219.246 482.273C220.337 481.697 221.56 481.409 222.916 481.409C224.28 481.409 225.488 481.697 226.541 482.273C227.594 482.848 228.42 483.625 229.018 484.602C229.617 485.58 229.916 486.667 229.916 487.864C229.916 488.72 229.761 489.557 229.45 490.375C229.147 491.186 228.617 492.091 227.859 493.091C227.109 494.083 226.068 495.295 224.734 496.727L219.507 502.318L219.507 502.5L230.325 502.5L230.325 505L215.643 505ZM233.365 500.227L233.365 497.909L243.592 481.727L245.274 481.727L245.274 485.318L244.138 485.318L236.41 497.545L236.41 497.727L250.183 497.727L250.183 500.227L233.365 500.227ZM244.32 505L244.32 499.523L244.32 498.443L244.32 481.727L247.001 481.727L247.001 505L244.32 505Z" fill="black"/>
<rect width="90" height="50" transform="matrix(-4.37114e-08 -1 -1 4.37114e-08 539 141)" fill="#FFE9BD" stroke="#757575" stroke-width="1.41262"/>
<rect width="90" height="50" transform="matrix(1 0 0 -1 489 51)" fill="#FFE9BD" stroke="#757575" stroke-width="1.41262"/>
<rect width="90" height="50" transform="matrix(1 0 0 -1 758 51)" fill="#FFE9BD" stroke="#757575" stroke-width="1.41262"/>
<rect width="90" height="50" transform="matrix(1 0 0 -1 669 51)" fill="#FFE9BD" stroke="#757575" stroke-width="1.41262"/>
<rect width="90" height="50" transform="matrix(1 0 0 -1 579 51)" fill="#FFE9BD" stroke="#757575" stroke-width="1.41262"/>
<path d="M526.669 12.7273V36H523.851V15.6818H523.714L518.033 19.4545V16.5909L523.851 12.7273L526.669 12.7273ZM540.771 12.4091C541.726 12.4167 542.68 12.5985 543.635 12.9545C544.589 13.3106 545.461 13.9015 546.249 14.7273C547.036 15.5455 547.669 16.6629 548.146 18.0795C548.624 19.4962 548.862 21.2727 548.862 23.4091C548.862 25.4773 548.665 27.3144 548.271 28.9205C547.885 30.5189 547.324 31.8674 546.589 32.9659C545.862 34.0644 544.976 34.8977 543.93 35.4659C542.893 36.0341 541.718 36.3182 540.408 36.3182C539.105 36.3182 537.942 36.0606 536.919 35.5455C535.904 35.0227 535.071 34.2992 534.419 33.375C533.775 32.4432 533.362 31.3636 533.18 30.1364L535.953 30.1364C536.203 31.2045 536.699 32.0871 537.442 32.7841C538.192 33.4735 539.18 33.8182 540.408 33.8182C542.203 33.8182 543.62 33.0341 544.658 31.4659C545.703 29.8977 546.226 27.6818 546.226 24.8182H546.044C545.62 25.4545 545.116 26.0038 544.533 26.4659C543.949 26.928 543.302 27.2841 542.589 27.5341C541.877 27.7841 541.12 27.9091 540.317 27.9091C538.983 27.9091 537.76 27.5795 536.646 26.9205C535.54 26.2538 534.654 25.3409 533.987 24.1818C533.328 23.0152 532.999 21.6818 532.999 20.1818C532.999 18.7576 533.317 17.4545 533.953 16.2727C534.597 15.0833 535.499 14.1364 536.658 13.4318C537.824 12.7273 539.196 12.3864 540.771 12.4091ZM540.771 14.9091C539.817 14.9091 538.957 15.1477 538.192 15.625C537.434 16.0947 536.832 16.7311 536.385 17.5341C535.946 18.3295 535.726 19.2121 535.726 20.1818C535.726 21.1515 535.938 22.0341 536.362 22.8295C536.794 23.6174 537.381 24.2462 538.124 24.7159C538.874 25.178 539.726 25.4091 540.68 25.4091C541.4 25.4091 542.071 25.2689 542.692 24.9886C543.313 24.7008 543.855 24.3106 544.317 23.8182C544.786 23.3182 545.154 22.7538 545.419 22.125C545.684 21.4886 545.817 20.8258 545.817 20.1364C545.817 19.2273 545.597 18.375 545.158 17.5795C544.726 16.7841 544.127 16.1402 543.362 15.6477C542.605 15.1553 541.741 14.9091 540.771 14.9091Z" fill="black"/>
<path d="M502.727 102.206L526 102.206L526 105.024L505.682 105.024L505.682 105.161L509.455 110.842L506.591 110.842L502.727 105.024L502.727 102.206ZM526.318 88.0582C526.318 89.6188 526.042 90.9976 525.489 92.1946C524.928 93.384 524.159 94.312 523.182 94.9787C522.197 95.6454 521.076 95.9749 519.818 95.9673C518.833 95.9749 517.924 95.7817 517.091 95.3878C516.25 94.9938 515.549 94.456 514.989 93.7741C514.42 93.0848 514.061 92.3158 513.909 91.4673L513.773 91.4673C513.485 92.581 512.86 93.4673 511.898 94.1264C510.928 94.7855 509.826 95.1113 508.591 95.1037C507.409 95.1113 506.352 94.812 505.42 94.206C504.489 93.5999 503.754 92.7666 503.216 91.706C502.678 90.6378 502.409 89.4219 502.409 88.0582C502.409 86.7098 502.678 85.5052 503.216 84.4446C503.754 83.384 504.489 82.5507 505.42 81.9446C506.352 81.331 507.409 81.0204 508.591 81.0128C509.826 81.0204 510.928 81.3575 511.898 82.0241C512.86 82.6832 513.485 83.5582 513.773 84.6491L513.909 84.6491C514.061 83.8082 514.42 83.0507 514.989 82.3764C515.549 81.7022 516.25 81.1643 517.091 80.7628C517.924 80.3613 518.833 80.1567 519.818 80.1491C521.076 80.1567 522.197 80.4976 523.182 81.1719C524.159 81.8385 524.928 82.7666 525.489 83.956C526.042 85.1378 526.318 86.5052 526.318 88.0582ZM523.818 88.0582C523.818 87.0052 523.648 86.0961 523.307 85.331C522.966 84.5658 522.485 83.9749 521.864 83.5582C521.242 83.1416 520.515 82.9295 519.682 82.9219C518.803 82.9295 518.027 83.1567 517.352 83.6037C516.678 84.0507 516.148 84.6605 515.761 85.4332C515.375 86.1984 515.182 87.0734 515.182 88.0582C515.182 89.0507 515.375 89.937 515.761 90.7173C516.148 91.4901 516.678 92.0999 517.352 92.5469C518.027 92.9863 518.803 93.2022 519.682 93.1946C520.515 93.2022 521.242 93.0014 521.864 92.5923C522.485 92.1757 522.966 91.581 523.307 90.8082C523.648 90.0355 523.818 89.1188 523.818 88.0582ZM512.773 88.0582C512.773 87.2249 512.606 86.4863 512.273 85.8423C511.939 85.1908 511.473 84.6795 510.875 84.3082C510.277 83.937 509.576 83.7476 508.773 83.7401C507.985 83.7476 507.299 83.9332 506.716 84.2969C506.125 84.6605 505.67 85.1643 505.352 85.8082C505.027 86.4522 504.864 87.2022 504.864 88.0582C504.864 88.9295 505.027 89.6908 505.352 90.3423C505.67 90.9938 506.125 91.4976 506.716 91.8537C507.299 92.2098 507.985 92.384 508.773 92.3764C509.576 92.384 510.277 92.206 510.875 91.8423C511.473 91.4711 511.939 90.9598 512.273 90.3082C512.606 89.6567 512.773 88.9067 512.773 88.0582Z" fill="black"/>
<path d="M606.722 36V33.9545L614.403 25.5455C615.305 24.5606 616.047 23.7045 616.631 22.9773C617.214 22.2424 617.646 21.553 617.926 20.9091C618.214 20.2576 618.358 19.5758 618.358 18.8636C618.358 18.0455 618.161 17.3371 617.767 16.7386C617.381 16.1402 616.85 15.678 616.176 15.3523C615.502 15.0265 614.744 14.8636 613.903 14.8636C613.009 14.8636 612.229 15.0492 611.563 15.4205C610.903 15.7841 610.392 16.2955 610.028 16.9545C609.672 17.6136 609.494 18.3864 609.494 19.2727L606.813 19.2727C606.813 17.9091 607.127 16.7121 607.756 15.6818C608.384 14.6515 609.241 13.8485 610.324 13.2727C611.415 12.697 612.638 12.4091 613.994 12.4091C615.358 12.4091 616.566 12.697 617.619 13.2727C618.672 13.8485 619.498 14.625 620.097 15.6023C620.695 16.5795 620.994 17.6667 620.994 18.8636C620.994 19.7197 620.839 20.5568 620.528 21.375C620.225 22.1856 619.695 23.0909 618.938 24.0909C618.188 25.0833 617.146 26.2955 615.813 27.7273L610.585 33.3182V33.5L621.403 33.5V36L606.722 36ZM633.687 36.3182C631.975 36.3182 630.517 35.8523 629.312 34.9205C628.108 33.9811 627.187 32.6212 626.551 30.8409C625.915 29.053 625.597 26.8939 625.597 24.3636C625.597 21.8485 625.915 19.7008 626.551 17.9205C627.195 16.1326 628.119 14.7689 629.324 13.8295C630.536 12.8826 631.991 12.4091 633.687 12.4091C635.384 12.4091 636.835 12.8826 638.04 13.8295C639.252 14.7689 640.176 16.1326 640.812 17.9205C641.456 19.7008 641.778 21.8485 641.778 24.3636C641.778 26.8939 641.46 29.053 640.824 30.8409C640.187 32.6212 639.267 33.9811 638.062 34.9205C636.858 35.8523 635.4 36.3182 633.687 36.3182ZM633.687 33.8182C635.384 33.8182 636.703 33 637.642 31.3636C638.581 29.7273 639.051 27.3939 639.051 24.3636C639.051 22.3485 638.835 20.6326 638.403 19.2159C637.979 17.7992 637.366 16.7197 636.562 15.9773C635.767 15.2348 634.809 14.8636 633.687 14.8636C632.006 14.8636 630.691 15.6932 629.744 17.3523C628.797 19.0038 628.324 21.3409 628.324 24.3636C628.324 26.3788 628.536 28.0909 628.96 29.5C629.384 30.9091 629.994 31.9811 630.79 32.7159C631.593 33.4508 632.559 33.8182 633.687 33.8182Z" fill="black"/>
<path d="M698.784 36V33.9545L706.466 25.5455C707.367 24.5606 708.11 23.7045 708.693 22.9773C709.277 22.2424 709.708 21.553 709.989 20.9091C710.277 20.2576 710.42 19.5758 710.42 18.8636C710.42 18.0455 710.223 17.3371 709.83 16.7386C709.443 16.1402 708.913 15.678 708.239 15.3523C707.564 15.0265 706.807 14.8636 705.966 14.8636C705.072 14.8636 704.292 15.0492 703.625 15.4205C702.966 15.7841 702.455 16.2955 702.091 16.9545C701.735 17.6136 701.557 18.3864 701.557 19.2727H698.875C698.875 17.9091 699.189 16.7121 699.818 15.6818C700.447 14.6515 701.303 13.8485 702.386 13.2727C703.477 12.697 704.701 12.4091 706.057 12.4091C707.42 12.4091 708.629 12.697 709.682 13.2727C710.735 13.8485 711.561 14.625 712.159 15.6023C712.758 16.5795 713.057 17.6667 713.057 18.8636C713.057 19.7197 712.902 20.5568 712.591 21.375C712.288 22.1856 711.758 23.0909 711 24.0909C710.25 25.0833 709.208 26.2955 707.875 27.7273L702.648 33.3182V33.5L713.466 33.5V36L698.784 36ZM726.341 12.7273V36L723.523 36V15.6818H723.386L717.705 19.4545V16.5909L723.523 12.7273L726.341 12.7273Z" fill="black"/>
<path d="M786.034 36V33.9545L793.716 25.5455C794.617 24.5606 795.36 23.7045 795.943 22.9773C796.527 22.2424 796.958 21.553 797.239 20.9091C797.527 20.2576 797.67 19.5758 797.67 18.8636C797.67 18.0455 797.473 17.3371 797.08 16.7386C796.693 16.1402 796.163 15.678 795.489 15.3523C794.814 15.0265 794.057 14.8636 793.216 14.8636C792.322 14.8636 791.542 15.0492 790.875 15.4205C790.216 15.7841 789.705 16.2955 789.341 16.9545C788.985 17.6136 788.807 18.3864 788.807 19.2727L786.125 19.2727C786.125 17.9091 786.439 16.7121 787.068 15.6818C787.697 14.6515 788.553 13.8485 789.636 13.2727C790.727 12.697 791.951 12.4091 793.307 12.4091C794.67 12.4091 795.879 12.697 796.932 13.2727C797.985 13.8485 798.811 14.625 799.409 15.6023C800.008 16.5795 800.307 17.6667 800.307 18.8636C800.307 19.7197 800.152 20.5568 799.841 21.375C799.538 22.1856 799.008 23.0909 798.25 24.0909C797.5 25.0833 796.458 26.2955 795.125 27.7273L789.898 33.3182V33.5L800.716 33.5V36L786.034 36ZM805.409 36V33.9545L813.091 25.5455C813.992 24.5606 814.735 23.7045 815.318 22.9773C815.902 22.2424 816.333 21.553 816.614 20.9091C816.902 20.2576 817.045 19.5758 817.045 18.8636C817.045 18.0455 816.848 17.3371 816.455 16.7386C816.068 16.1402 815.538 15.678 814.864 15.3523C814.189 15.0265 813.432 14.8636 812.591 14.8636C811.697 14.8636 810.917 15.0492 810.25 15.4205C809.591 15.7841 809.08 16.2955 808.716 16.9545C808.36 17.6136 808.182 18.3864 808.182 19.2727H805.5C805.5 17.9091 805.814 16.7121 806.443 15.6818C807.072 14.6515 807.928 13.8485 809.011 13.2727C810.102 12.697 811.326 12.4091 812.682 12.4091C814.045 12.4091 815.254 12.697 816.307 13.2727C817.36 13.8485 818.186 14.625 818.784 15.6023C819.383 16.5795 819.682 17.6667 819.682 18.8636C819.682 19.7197 819.527 20.5568 819.216 21.375C818.913 22.1856 818.383 23.0909 817.625 24.0909C816.875 25.0833 815.833 26.2955 814.5 27.7273L809.273 33.3182V33.5L820.091 33.5V36L805.409 36Z" fill="black"/>
<rect width="90" height="50" transform="matrix(1 0 0 -1 489 191)" fill="#FFE9BD" stroke="#757575" stroke-width="1.41262"/>
<rect width="90" height="50" transform="matrix(1 0 0 -1 759 191)" fill="#FFE9BD" stroke="#757575" stroke-width="1.41262"/>
<rect width="90" height="50" transform="matrix(1 0 0 -1 669 191)" fill="#FFE9BD" stroke="#757575" stroke-width="1.41262"/>
<rect width="90" height="50" transform="matrix(1 0 0 -1 579 191)" fill="#FFE9BD" stroke="#757575" stroke-width="1.41262"/>
<path d="M527.513 154.727V178H524.695V157.682H524.558L518.876 161.455V158.591L524.695 154.727H527.513ZM534.933 178L545.342 157.409V157.227H533.342V154.727H548.251V157.364L537.888 178H534.933Z" fill="black"/>
<path d="M617.169 154.727V178L614.351 178V157.682H614.214L608.533 161.455V158.591L614.351 154.727L617.169 154.727ZM631.589 178.318C630.635 178.303 629.68 178.121 628.726 177.773C627.771 177.424 626.9 176.837 626.112 176.011C625.324 175.178 624.692 174.053 624.214 172.636C623.737 171.212 623.499 169.424 623.499 167.273C623.499 165.212 623.692 163.386 624.078 161.795C624.464 160.197 625.025 158.852 625.76 157.761C626.495 156.663 627.381 155.83 628.419 155.261C629.464 154.693 630.643 154.409 631.953 154.409C633.256 154.409 634.415 154.67 635.43 155.193C636.453 155.708 637.286 156.428 637.93 157.352C638.574 158.277 638.991 159.341 639.18 160.545L636.408 160.545C636.15 159.5 635.65 158.633 634.908 157.943C634.165 157.254 633.18 156.909 631.953 156.909C630.15 156.909 628.73 157.693 627.692 159.261C626.661 160.83 626.143 163.03 626.135 165.864H626.317C626.741 165.22 627.245 164.67 627.828 164.216C628.419 163.754 629.071 163.398 629.783 163.148C630.495 162.898 631.249 162.773 632.044 162.773C633.377 162.773 634.597 163.106 635.703 163.773C636.809 164.432 637.696 165.345 638.362 166.511C639.029 167.67 639.362 169 639.362 170.5C639.362 171.939 639.04 173.258 638.396 174.455C637.752 175.644 636.847 176.591 635.68 177.295C634.521 177.992 633.158 178.333 631.589 178.318ZM631.589 175.818C632.544 175.818 633.4 175.58 634.158 175.102C634.923 174.625 635.525 173.985 635.964 173.182C636.411 172.379 636.635 171.485 636.635 170.5C636.635 169.538 636.419 168.663 635.987 167.875C635.563 167.08 634.976 166.447 634.226 165.977C633.483 165.508 632.635 165.273 631.68 165.273C630.961 165.273 630.29 165.417 629.669 165.705C629.048 165.985 628.502 166.371 628.033 166.864C627.571 167.356 627.207 167.92 626.942 168.557C626.677 169.186 626.544 169.848 626.544 170.545C626.544 171.47 626.76 172.333 627.192 173.136C627.631 173.939 628.23 174.587 628.987 175.08C629.752 175.572 630.62 175.818 631.589 175.818Z" fill="black"/>
<path d="M706.919 154.727V178H704.101V157.682H703.964L698.283 161.455V158.591L704.101 154.727H706.919ZM720.885 178.318C719.552 178.318 718.351 178.053 717.283 177.523C716.214 176.992 715.358 176.265 714.714 175.341C714.071 174.417 713.718 173.364 713.658 172.182H716.385C716.491 173.235 716.968 174.106 717.817 174.795C718.673 175.477 719.696 175.818 720.885 175.818C721.839 175.818 722.688 175.595 723.43 175.148C724.18 174.701 724.768 174.087 725.192 173.307C725.624 172.519 725.839 171.629 725.839 170.636C725.839 169.621 725.616 168.716 725.169 167.92C724.73 167.117 724.124 166.485 723.351 166.023C722.578 165.561 721.696 165.326 720.703 165.318C719.991 165.311 719.26 165.42 718.51 165.648C717.76 165.867 717.143 166.152 716.658 166.5L714.021 166.182L715.43 154.727H727.521V157.227H717.794L716.976 164.091H717.112C717.589 163.712 718.188 163.398 718.908 163.148C719.627 162.898 720.377 162.773 721.158 162.773C722.582 162.773 723.851 163.114 724.964 163.795C726.086 164.47 726.964 165.394 727.601 166.568C728.245 167.742 728.567 169.083 728.567 170.591C728.567 172.076 728.233 173.402 727.567 174.568C726.908 175.727 725.999 176.644 724.839 177.318C723.68 177.985 722.362 178.318 720.885 178.318Z" fill="black"/>
<path d="M796.888 154.727V178H794.07V157.682H793.933L788.251 161.455V158.591L794.07 154.727L796.888 154.727ZM803.036 173.227V170.909L813.263 154.727H814.945V158.318H813.808L806.081 170.545V170.727H819.854L819.854 173.227H803.036ZM813.99 178V172.523L813.99 171.443V154.727H816.672L816.672 178H813.99Z" fill="black"/>
<rect width="90" height="50" transform="matrix(1 0 0 -1 939 191)" fill="#FFE9BD" stroke="#757575" stroke-width="1.41262"/>
<rect width="90" height="50" transform="matrix(1 0 0 -1 849 191)" fill="#FFE9BD" stroke="#757575" stroke-width="1.41262"/>
<path d="M886.466 154.727V178H883.648V157.682H883.511L877.83 161.455V158.591L883.648 154.727H886.466ZM901.023 178.318C899.523 178.318 898.186 178.061 897.011 177.545C895.845 177.03 894.917 176.314 894.227 175.398C893.545 174.473 893.174 173.402 893.114 172.182H895.977C896.038 172.932 896.295 173.58 896.75 174.125C897.205 174.663 897.799 175.08 898.534 175.375C899.269 175.67 900.083 175.818 900.977 175.818C901.977 175.818 902.864 175.644 903.636 175.295C904.409 174.947 905.015 174.462 905.455 173.841C905.894 173.22 906.114 172.5 906.114 171.682C906.114 170.826 905.902 170.072 905.477 169.42C905.053 168.761 904.432 168.246 903.614 167.875C902.795 167.504 901.795 167.318 900.614 167.318H898.75V164.818H900.614C901.538 164.818 902.348 164.652 903.045 164.318C903.75 163.985 904.299 163.515 904.693 162.909C905.095 162.303 905.295 161.591 905.295 160.773C905.295 159.985 905.121 159.299 904.773 158.716C904.424 158.133 903.932 157.678 903.295 157.352C902.667 157.027 901.924 156.864 901.068 156.864C900.265 156.864 899.508 157.011 898.795 157.307C898.091 157.595 897.515 158.015 897.068 158.568C896.621 159.114 896.379 159.773 896.341 160.545H893.614C893.659 159.326 894.027 158.258 894.716 157.341C895.405 156.417 896.307 155.697 897.42 155.182C898.542 154.667 899.773 154.409 901.114 154.409C902.553 154.409 903.788 154.701 904.818 155.284C905.848 155.86 906.64 156.621 907.193 157.568C907.746 158.515 908.023 159.538 908.023 160.636C908.023 161.947 907.678 163.064 906.989 163.989C906.307 164.913 905.379 165.553 904.205 165.909V166.091C905.674 166.333 906.822 166.958 907.648 167.966C908.473 168.966 908.886 170.205 908.886 171.682C908.886 172.947 908.542 174.083 907.852 175.091C907.17 176.091 906.239 176.879 905.057 177.455C903.875 178.03 902.53 178.318 901.023 178.318Z" fill="black"/>
<path d="M977.466 154.727V178H974.648V157.682H974.511L968.83 161.455V158.591L974.648 154.727L977.466 154.727ZM984.159 178V175.955L991.841 167.545C992.742 166.561 993.485 165.705 994.068 164.977C994.652 164.242 995.083 163.553 995.364 162.909C995.652 162.258 995.795 161.576 995.795 160.864C995.795 160.045 995.598 159.337 995.205 158.739C994.818 158.14 994.288 157.678 993.614 157.352C992.939 157.027 992.182 156.864 991.341 156.864C990.447 156.864 989.667 157.049 989 157.42C988.341 157.784 987.83 158.295 987.466 158.955C987.11 159.614 986.932 160.386 986.932 161.273H984.25C984.25 159.909 984.564 158.712 985.193 157.682C985.822 156.652 986.678 155.848 987.761 155.273C988.852 154.697 990.076 154.409 991.432 154.409C992.795 154.409 994.004 154.697 995.057 155.273C996.11 155.848 996.936 156.625 997.534 157.602C998.133 158.58 998.432 159.667 998.432 160.864C998.432 161.72 998.277 162.557 997.966 163.375C997.663 164.186 997.133 165.091 996.375 166.091C995.625 167.083 994.583 168.295 993.25 169.727L988.023 175.318V175.5H998.841V178H984.159Z" fill="black"/>
<rect width="90" height="50" transform="matrix(1 0 0 -1 759 241)" fill="#FFE9BD" stroke="#757575" stroke-width="1.41262"/>
<rect width="90" height="50" transform="matrix(1 0 0 -1 669 241)" fill="#FFE9BD" stroke="#757575" stroke-width="1.41262"/>
<rect width="90" height="50" transform="matrix(1 0 0 -1 579 241)" fill="#FFE9BD" stroke="#757575" stroke-width="1.41262"/>
<path d="M617.996 228L628.405 207.409V207.227H616.405V204.727H631.314V207.364L620.95 228H617.996Z" fill="black"/>
<path d="M713.504 228.318C711.944 228.318 710.565 228.042 709.368 227.489C708.179 226.928 707.25 226.159 706.584 225.182C705.917 224.197 705.588 223.076 705.595 221.818C705.588 220.833 705.781 219.924 706.175 219.091C706.569 218.25 707.107 217.549 707.788 216.989C708.478 216.42 709.247 216.061 710.095 215.909V215.773C708.982 215.485 708.095 214.86 707.436 213.898C706.777 212.928 706.451 211.826 706.459 210.591C706.451 209.409 706.75 208.352 707.357 207.42C707.963 206.489 708.796 205.754 709.857 205.216C710.925 204.678 712.141 204.409 713.504 204.409C714.853 204.409 716.057 204.678 717.118 205.216C718.179 205.754 719.012 206.489 719.618 207.42C720.232 208.352 720.542 209.409 720.55 210.591C720.542 211.826 720.205 212.928 719.538 213.898C718.879 214.86 718.004 215.485 716.913 215.773V215.909C717.754 216.061 718.512 216.42 719.186 216.989C719.86 217.549 720.398 218.25 720.8 219.091C721.201 219.924 721.406 220.833 721.413 221.818C721.406 223.076 721.065 224.197 720.391 225.182C719.724 226.159 718.796 226.928 717.607 227.489C716.425 228.042 715.057 228.318 713.504 228.318ZM713.504 225.818C714.557 225.818 715.466 225.648 716.232 225.307C716.997 224.966 717.588 224.485 718.004 223.864C718.421 223.242 718.633 222.515 718.641 221.682C718.633 220.803 718.406 220.027 717.959 219.352C717.512 218.678 716.902 218.148 716.129 217.761C715.364 217.375 714.489 217.182 713.504 217.182C712.512 217.182 711.625 217.375 710.845 217.761C710.072 218.148 709.463 218.678 709.016 219.352C708.576 220.027 708.36 220.803 708.368 221.682C708.36 222.515 708.561 223.242 708.97 223.864C709.387 224.485 709.982 224.966 710.754 225.307C711.527 225.648 712.444 225.818 713.504 225.818ZM713.504 214.773C714.338 214.773 715.076 214.606 715.72 214.273C716.372 213.939 716.883 213.473 717.254 212.875C717.625 212.277 717.815 211.576 717.822 210.773C717.815 209.985 717.629 209.299 717.266 208.716C716.902 208.125 716.398 207.67 715.754 207.352C715.11 207.027 714.36 206.864 713.504 206.864C712.633 206.864 711.872 207.027 711.22 207.352C710.569 207.67 710.065 208.125 709.709 208.716C709.353 209.299 709.179 209.985 709.186 210.773C709.179 211.576 709.357 212.277 709.72 212.875C710.091 213.473 710.603 213.939 711.254 214.273C711.906 214.606 712.656 214.773 713.504 214.773Z" fill="black"/>
<path d="M803.834 204.409C804.788 204.417 805.743 204.598 806.697 204.955C807.652 205.311 808.523 205.902 809.311 206.727C810.099 207.545 810.732 208.663 811.209 210.08C811.686 211.496 811.925 213.273 811.925 215.409C811.925 217.477 811.728 219.314 811.334 220.92C810.947 222.519 810.387 223.867 809.652 224.966C808.925 226.064 808.038 226.898 806.993 227.466C805.955 228.034 804.781 228.318 803.47 228.318C802.167 228.318 801.004 228.061 799.982 227.545C798.966 227.023 798.133 226.299 797.482 225.375C796.838 224.443 796.425 223.364 796.243 222.136H799.016C799.266 223.205 799.762 224.087 800.504 224.784C801.254 225.473 802.243 225.818 803.47 225.818C805.266 225.818 806.682 225.034 807.72 223.466C808.766 221.898 809.288 219.682 809.288 216.818H809.107C808.682 217.455 808.179 218.004 807.595 218.466C807.012 218.928 806.364 219.284 805.652 219.534C804.94 219.784 804.182 219.909 803.379 219.909C802.046 219.909 800.822 219.58 799.709 218.92C798.603 218.254 797.716 217.341 797.05 216.182C796.391 215.015 796.061 213.682 796.061 212.182C796.061 210.758 796.379 209.455 797.016 208.273C797.66 207.083 798.561 206.136 799.72 205.432C800.887 204.727 802.258 204.386 803.834 204.409ZM803.834 206.909C802.879 206.909 802.019 207.148 801.254 207.625C800.497 208.095 799.894 208.731 799.447 209.534C799.008 210.33 798.788 211.212 798.788 212.182C798.788 213.152 799 214.034 799.425 214.83C799.857 215.617 800.444 216.246 801.186 216.716C801.936 217.178 802.788 217.409 803.743 217.409C804.463 217.409 805.133 217.269 805.754 216.989C806.375 216.701 806.917 216.311 807.379 215.818C807.849 215.318 808.216 214.754 808.482 214.125C808.747 213.489 808.879 212.826 808.879 212.136C808.879 211.227 808.66 210.375 808.22 209.58C807.788 208.784 807.19 208.14 806.425 207.648C805.667 207.155 804.804 206.909 803.834 206.909Z" fill="black"/>
<rect width="90" height="50" transform="matrix(1 0 0 -1 939 241)" fill="#FFE9BD" stroke="#757575" stroke-width="1.41262"/>
<rect width="90" height="50" transform="matrix(1 0 0 -1 849 241)" fill="#FFE9BD" stroke="#757575" stroke-width="1.41262"/>
<path d="M886.653 204.727V228H883.835V207.682H883.699L878.017 211.455V208.591L883.835 204.727H886.653ZM900.938 228.318C899.225 228.318 897.767 227.852 896.563 226.92C895.358 225.981 894.438 224.621 893.801 222.841C893.165 221.053 892.847 218.894 892.847 216.364C892.847 213.848 893.165 211.701 893.801 209.92C894.445 208.133 895.369 206.769 896.574 205.83C897.786 204.883 899.241 204.409 900.938 204.409C902.634 204.409 904.085 204.883 905.29 205.83C906.502 206.769 907.426 208.133 908.062 209.92C908.706 211.701 909.028 213.848 909.028 216.364C909.028 218.894 908.71 221.053 908.074 222.841C907.437 224.621 906.517 225.981 905.313 226.92C904.108 227.852 902.65 228.318 900.938 228.318ZM900.938 225.818C902.634 225.818 903.953 225 904.892 223.364C905.831 221.727 906.301 219.394 906.301 216.364C906.301 214.348 906.085 212.633 905.653 211.216C905.229 209.799 904.616 208.72 903.813 207.977C903.017 207.235 902.059 206.864 900.938 206.864C899.256 206.864 897.941 207.693 896.994 209.352C896.047 211.004 895.574 213.341 895.574 216.364C895.574 218.379 895.786 220.091 896.21 221.5C896.634 222.909 897.244 223.981 898.04 224.716C898.843 225.451 899.809 225.818 900.938 225.818Z" fill="black"/>
<path d="M979.716 204.727V228L976.898 228V207.682H976.761L971.08 211.455V208.591L976.898 204.727H979.716ZM994.591 204.727V228H991.773V207.682H991.636L985.955 211.455V208.591L991.773 204.727H994.591Z" fill="black"/>
<path d="M770.232 104.472L768.984 102.616C769.517 102.019 770.104 101.411 770.744 100.792C771.384 100.173 772.013 99.5973 772.632 99.064C773.251 98.5093 773.816 98.0613 774.328 97.72L775.736 99.736C775.224 100.013 774.648 100.419 774.008 100.952C773.368 101.485 772.717 102.061 772.056 102.68C771.395 103.277 770.787 103.875 770.232 104.472ZM780.12 98.616L791.768 98.616L791.768 100.984L782.36 100.984L782.36 105.4L780.12 105.4L780.12 98.616ZM790.488 99.832C790.488 99.4693 790.584 99.128 790.776 98.808C790.968 98.488 791.224 98.1253 791.544 97.72C791.843 97.3147 792.184 96.824 792.568 96.248C793.208 95.2027 793.624 93.9867 793.816 92.6C794.008 91.2133 794.104 89.624 794.104 87.832C794.104 86.8933 794.093 85.912 794.072 84.888C794.029 83.8427 793.987 82.7973 793.944 81.752C793.88 80.7067 793.816 79.704 793.752 78.744C793.667 77.784 793.581 76.92 793.496 76.152C793.709 76.2587 793.976 76.3653 794.296 76.472C794.616 76.5787 794.936 76.6747 795.256 76.76C795.576 76.824 795.853 76.8667 796.088 76.888C796.131 77.464 796.163 78.2107 796.184 79.128C796.227 80.024 796.259 81.016 796.28 82.104C796.301 83.1707 796.323 84.216 796.344 85.24C796.365 86.2427 796.376 87.128 796.376 87.896C796.376 89.88 796.259 91.576 796.024 92.984C795.811 94.392 795.352 95.6613 794.648 96.792C794.221 97.4533 793.795 98.0507 793.368 98.584C792.941 99.096 792.728 99.5333 792.728 99.896C792.728 100.237 792.92 100.643 793.304 101.112C793.667 101.56 794.157 102.04 794.776 102.552C795.395 103.064 796.077 103.597 796.824 104.152L794.552 105.816C793.357 104.707 792.387 103.64 791.64 102.616C790.872 101.571 790.488 100.643 790.488 99.832ZM773.88 96.376L773.88 77.08L776.152 77.08L776.152 96.376L773.88 96.376ZM768.216 83.96L768.216 81.528L788.856 81.528C789.667 81.528 790.275 81.6453 790.68 81.88C791.085 82.1147 791.384 82.52 791.576 83.096C791.768 83.6507 791.896 84.4293 791.96 85.432C792.003 86.4347 792.024 87.6827 792.024 89.176C791.661 89.2187 791.245 89.336 790.776 89.528C790.307 89.6987 789.901 89.8693 789.56 90.04C789.581 89.2507 789.603 88.504 789.624 87.8C789.645 87.0747 789.656 86.456 789.656 85.944C789.635 85.4107 789.624 85.0373 789.624 84.824C789.603 84.504 789.539 84.28 789.432 84.152C789.325 84.024 789.133 83.96 788.856 83.96L768.216 83.96ZM779.736 94.808L778.68 92.888C779.32 92.3333 780.024 91.768 780.792 91.192C781.56 90.5947 782.307 90.04 783.032 89.528C783.757 89.016 784.408 88.6107 784.984 88.312L786.2 90.328C785.645 90.6267 784.995 91.0213 784.248 91.512C783.48 92.0027 782.701 92.5467 781.912 93.144C781.123 93.72 780.397 94.2747 779.736 94.808ZM811.184 97.048L811.184 76.696L813.2 76.696L813.2 97.048L811.184 97.048ZM812.08 88.312L812.336 85.592C813.147 85.848 813.957 86.1253 814.768 86.424C815.579 86.7013 816.283 86.968 816.88 87.224L816.464 89.208C815.845 89.0373 815.12 88.8667 814.288 88.696C813.435 88.504 812.699 88.376 812.08 88.312ZM807.12 82.744L807.696 80.28C808.443 80.728 809.189 81.1867 809.936 81.656C810.661 82.1253 811.291 82.5733 811.824 83L811.28 84.984C810.875 84.728 810.427 84.4613 809.936 84.184C809.445 83.9067 808.955 83.64 808.464 83.384C807.952 83.1067 807.504 82.8933 807.12 82.744ZM807.92 93.656L807.184 91.768C807.717 91.256 808.325 90.776 809.008 90.328C809.691 89.88 810.288 89.5707 810.8 89.4L811.664 91.384C811.152 91.5547 810.544 91.8533 809.84 92.28C809.115 92.7067 808.475 93.1653 807.92 93.656ZM819.76 98.616L831.088 98.616L831.088 100.952L822 100.952L822 105.432L819.76 105.432L819.76 98.616ZM830.032 98.616C831.205 97.848 832.08 96.7813 832.656 95.416C833.232 94.0507 833.552 92.44 833.616 90.584C833.659 89.7093 833.691 88.6533 833.712 87.416C833.712 86.1573 833.701 84.8453 833.68 83.48C833.659 82.0933 833.627 80.76 833.584 79.48C833.541 78.2 833.488 77.08 833.424 76.12C833.595 76.2267 833.829 76.3333 834.128 76.44C834.427 76.5467 834.725 76.6427 835.024 76.728C835.344 76.8133 835.621 76.8773 835.856 76.92C835.899 77.7947 835.931 78.8293 835.952 80.024C835.973 81.2187 835.984 82.456 835.984 83.736C836.005 85.016 836.005 86.264 835.984 87.48C835.984 88.6747 835.973 89.7093 835.952 90.584C835.867 92.6747 835.525 94.4667 834.928 95.96C834.331 97.432 833.392 98.68 832.112 99.704C832.795 100.472 833.477 101.261 834.16 102.072C834.864 102.883 835.579 103.725 836.304 104.6L833.84 105.848C833.328 105.08 832.741 104.259 832.08 103.384C831.397 102.488 830.715 101.624 830.032 100.792L830.032 98.616ZM809.328 105.08L807.888 103.32C808.336 102.616 808.859 101.901 809.456 101.176C810.032 100.451 810.619 99.7893 811.216 99.192C811.813 98.5733 812.368 98.072 812.88 97.688L814.48 99.608C813.968 99.928 813.403 100.397 812.784 101.016C812.165 101.613 811.557 102.275 810.96 103C810.341 103.704 809.797 104.397 809.328 105.08ZM822 92.216L824.656 92.216L824.656 81.56L822 81.56L822 92.216ZM826.416 92.216L829.104 92.216L829.104 81.56L826.416 81.56L826.416 92.216ZM817.616 92.216L820.24 92.216L820.24 81.56L817.616 81.56L817.616 92.216ZM815.76 94.488L815.76 79.192L830.992 79.192L830.992 94.488L815.76 94.488Z" fill="black"/>
<rect width="90" height="50" transform="matrix(-4.37114e-08 -1 -1 4.37114e-08 539 331)" fill="#FFE9BD" stroke="#757575" stroke-width="1.41262"/>
<path d="M526.318 285.553C526.318 286.886 526.053 288.087 525.523 289.155C524.992 290.223 524.265 291.079 523.341 291.723C522.417 292.367 521.364 292.719 520.182 292.78L520.182 290.053C521.235 289.946 522.106 289.469 522.795 288.621C523.477 287.765 523.818 286.742 523.818 285.553C523.818 284.598 523.595 283.75 523.148 283.007C522.701 282.257 522.087 281.67 521.307 281.246C520.519 280.814 519.629 280.598 518.636 280.598C517.621 280.598 516.716 280.821 515.92 281.268C515.117 281.708 514.485 282.314 514.023 283.087C513.561 283.859 513.326 284.742 513.318 285.734C513.311 286.446 513.42 287.178 513.648 287.928C513.867 288.678 514.152 289.295 514.5 289.78L514.182 292.416L502.727 291.007L502.727 278.916L505.227 278.916L505.227 288.643L512.091 289.462L512.091 289.325C511.712 288.848 511.398 288.25 511.148 287.53C510.898 286.81 510.773 286.06 510.773 285.28C510.773 283.856 511.114 282.587 511.795 281.473C512.47 280.352 513.394 279.473 514.568 278.837C515.742 278.193 517.083 277.871 518.591 277.871C520.076 277.871 521.402 278.204 522.568 278.871C523.727 279.53 524.644 280.439 525.318 281.598C525.985 282.757 526.318 284.075 526.318 285.553Z" fill="black"/>
<rect width="90" height="50" transform="matrix(1 0 0 -1 489 381)" fill="#FFE9BD" stroke="#757575" stroke-width="1.41262"/>
<rect width="90" height="50" transform="matrix(1 0 0 -1 759 381)" fill="#FFE9BD" stroke="#757575" stroke-width="1.41262"/>
<rect width="90" height="50" transform="matrix(1 0 0 -1 669 381)" fill="#FFE9BD" stroke="#757575" stroke-width="1.41262"/>
<rect width="90" height="50" transform="matrix(1 0 0 -1 579 381)" fill="#FFE9BD" stroke="#757575" stroke-width="1.41262"/>
<path d="M526.098 363.227V360.909L536.325 344.727H538.007V348.318H536.871L529.143 360.545V360.727H542.916L542.916 363.227H526.098ZM537.053 368V362.523L537.053 361.443V344.727H539.734L539.734 368H537.053Z" fill="black"/>
<path d="M624.085 368.318C622.585 368.318 621.248 368.061 620.074 367.545C618.907 367.03 617.979 366.314 617.29 365.398C616.608 364.473 616.237 363.402 616.176 362.182H619.04C619.1 362.932 619.358 363.58 619.813 364.125C620.267 364.663 620.862 365.08 621.597 365.375C622.331 365.67 623.146 365.818 624.04 365.818C625.04 365.818 625.926 365.644 626.699 365.295C627.472 364.947 628.078 364.462 628.517 363.841C628.956 363.22 629.176 362.5 629.176 361.682C629.176 360.826 628.964 360.072 628.54 359.42C628.116 358.761 627.494 358.246 626.676 357.875C625.858 357.504 624.858 357.318 623.676 357.318H621.813V354.818H623.676C624.6 354.818 625.411 354.652 626.108 354.318C626.813 353.985 627.362 353.515 627.756 352.909C628.157 352.303 628.358 351.591 628.358 350.773C628.358 349.985 628.184 349.299 627.835 348.716C627.487 348.133 626.994 347.678 626.358 347.352C625.729 347.027 624.987 346.864 624.131 346.864C623.328 346.864 622.57 347.011 621.858 347.307C621.153 347.595 620.578 348.015 620.131 348.568C619.684 349.114 619.441 349.773 619.403 350.545H616.676C616.722 349.326 617.089 348.258 617.778 347.341C618.468 346.417 619.369 345.697 620.483 345.182C621.604 344.667 622.835 344.409 624.176 344.409C625.616 344.409 626.85 344.701 627.881 345.284C628.911 345.86 629.703 346.621 630.256 347.568C630.809 348.515 631.085 349.538 631.085 350.636C631.085 351.947 630.741 353.064 630.051 353.989C629.369 354.913 628.441 355.553 627.267 355.909V356.091C628.737 356.333 629.884 356.958 630.71 357.966C631.536 358.966 631.949 360.205 631.949 361.682C631.949 362.947 631.604 364.083 630.915 365.091C630.233 366.091 629.301 366.879 628.119 367.455C626.938 368.03 625.593 368.318 624.085 368.318Z" fill="black"/>
<path d="M706.222 368V365.955L713.903 357.545C714.805 356.561 715.547 355.705 716.131 354.977C716.714 354.242 717.146 353.553 717.426 352.909C717.714 352.258 717.858 351.576 717.858 350.864C717.858 350.045 717.661 349.337 717.267 348.739C716.881 348.14 716.35 347.678 715.676 347.352C715.002 347.027 714.244 346.864 713.403 346.864C712.509 346.864 711.729 347.049 711.063 347.42C710.403 347.784 709.892 348.295 709.528 348.955C709.172 349.614 708.994 350.386 708.994 351.273H706.313C706.313 349.909 706.627 348.712 707.256 347.682C707.884 346.652 708.741 345.848 709.824 345.273C710.915 344.697 712.138 344.409 713.494 344.409C714.858 344.409 716.066 344.697 717.119 345.273C718.172 345.848 718.998 346.625 719.597 347.602C720.195 348.58 720.494 349.667 720.494 350.864C720.494 351.72 720.339 352.557 720.028 353.375C719.725 354.186 719.195 355.091 718.438 356.091C717.688 357.083 716.646 358.295 715.313 359.727L710.085 365.318V365.5H720.903V368H706.222Z" fill="black"/>
<path d="M807.153 344.727V368H804.335V347.682H804.199L798.517 351.455V348.591L804.335 344.727H807.153Z" fill="black"/>
<path d="M770.232 299.472L768.984 297.616C769.517 297.019 770.104 296.411 770.744 295.792C771.384 295.173 772.013 294.597 772.632 294.064C773.251 293.509 773.816 293.061 774.328 292.72L775.736 294.736C775.224 295.013 774.648 295.419 774.008 295.952C773.368 296.485 772.717 297.061 772.056 297.68C771.395 298.277 770.787 298.875 770.232 299.472ZM780.12 293.616L791.768 293.616L791.768 295.984L782.36 295.984L782.36 300.4L780.12 300.4L780.12 293.616ZM790.488 294.832C790.488 294.469 790.584 294.128 790.776 293.808C790.968 293.488 791.224 293.125 791.544 292.72C791.843 292.315 792.184 291.824 792.568 291.248C793.208 290.203 793.624 288.987 793.816 287.6C794.008 286.213 794.104 284.624 794.104 282.832C794.104 281.893 794.093 280.912 794.072 279.888C794.029 278.843 793.987 277.797 793.944 276.752C793.88 275.707 793.816 274.704 793.752 273.744C793.667 272.784 793.581 271.92 793.496 271.152C793.709 271.259 793.976 271.365 794.296 271.472C794.616 271.579 794.936 271.675 795.256 271.76C795.576 271.824 795.853 271.867 796.088 271.888C796.131 272.464 796.163 273.211 796.184 274.128C796.227 275.024 796.259 276.016 796.28 277.104C796.301 278.171 796.323 279.216 796.344 280.24C796.365 281.243 796.376 282.128 796.376 282.896C796.376 284.88 796.259 286.576 796.024 287.984C795.811 289.392 795.352 290.661 794.648 291.792C794.221 292.453 793.795 293.051 793.368 293.584C792.941 294.096 792.728 294.533 792.728 294.896C792.728 295.237 792.92 295.643 793.304 296.112C793.667 296.56 794.157 297.04 794.776 297.552C795.395 298.064 796.077 298.597 796.824 299.152L794.552 300.816C793.357 299.707 792.387 298.64 791.64 297.616C790.872 296.571 790.488 295.643 790.488 294.832ZM773.88 291.376L773.88 272.08L776.152 272.08L776.152 291.376L773.88 291.376ZM768.216 278.96L768.216 276.528L788.856 276.528C789.667 276.528 790.275 276.645 790.68 276.88C791.085 277.115 791.384 277.52 791.576 278.096C791.768 278.651 791.896 279.429 791.96 280.432C792.003 281.435 792.024 282.683 792.024 284.176C791.661 284.219 791.245 284.336 790.776 284.528C790.307 284.699 789.901 284.869 789.56 285.04C789.581 284.251 789.603 283.504 789.624 282.8C789.645 282.075 789.656 281.456 789.656 280.944C789.635 280.411 789.624 280.037 789.624 279.824C789.603 279.504 789.539 279.28 789.432 279.152C789.325 279.024 789.133 278.96 788.856 278.96L768.216 278.96ZM779.736 289.808L778.68 287.888C779.32 287.333 780.024 286.768 780.792 286.192C781.56 285.595 782.307 285.04 783.032 284.528C783.757 284.016 784.408 283.611 784.984 283.312L786.2 285.328C785.645 285.627 784.995 286.021 784.248 286.512C783.48 287.003 782.701 287.547 781.912 288.144C781.123 288.72 780.397 289.275 779.736 289.808ZM811.184 292.048L811.184 271.696L813.2 271.696L813.2 292.048L811.184 292.048ZM812.08 283.312L812.336 280.592C813.147 280.848 813.957 281.125 814.768 281.424C815.579 281.701 816.283 281.968 816.88 282.224L816.464 284.208C815.845 284.037 815.12 283.867 814.288 283.696C813.435 283.504 812.699 283.376 812.08 283.312ZM807.12 277.744L807.696 275.28C808.443 275.728 809.189 276.187 809.936 276.656C810.661 277.125 811.291 277.573 811.824 278L811.28 279.984C810.875 279.728 810.427 279.461 809.936 279.184C809.445 278.907 808.955 278.64 808.464 278.384C807.952 278.107 807.504 277.893 807.12 277.744ZM807.92 288.656L807.184 286.768C807.717 286.256 808.325 285.776 809.008 285.328C809.691 284.88 810.288 284.571 810.8 284.4L811.664 286.384C811.152 286.555 810.544 286.853 809.84 287.28C809.115 287.707 808.475 288.165 807.92 288.656ZM819.76 293.616L831.088 293.616L831.088 295.952L822 295.952L822 300.432L819.76 300.432L819.76 293.616ZM830.032 293.616C831.205 292.848 832.08 291.781 832.656 290.416C833.232 289.051 833.552 287.44 833.616 285.584C833.659 284.709 833.691 283.653 833.712 282.416C833.712 281.157 833.701 279.845 833.68 278.48C833.659 277.093 833.627 275.76 833.584 274.48C833.541 273.2 833.488 272.08 833.424 271.12C833.595 271.227 833.829 271.333 834.128 271.44C834.427 271.547 834.725 271.643 835.024 271.728C835.344 271.813 835.621 271.877 835.856 271.92C835.899 272.795 835.931 273.829 835.952 275.024C835.973 276.219 835.984 277.456 835.984 278.736C836.005 280.016 836.005 281.264 835.984 282.48C835.984 283.675 835.973 284.709 835.952 285.584C835.867 287.675 835.525 289.467 834.928 290.96C834.331 292.432 833.392 293.68 832.112 294.704C832.795 295.472 833.477 296.261 834.16 297.072C834.864 297.883 835.579 298.725 836.304 299.6L833.84 300.848C833.328 300.08 832.741 299.259 832.08 298.384C831.397 297.488 830.715 296.624 830.032 295.792L830.032 293.616ZM809.328 300.08L807.888 298.32C808.336 297.616 808.859 296.901 809.456 296.176C810.032 295.451 810.619 294.789 811.216 294.192C811.813 293.573 812.368 293.072 812.88 292.688L814.48 294.608C813.968 294.928 813.403 295.397 812.784 296.016C812.165 296.613 811.557 297.275 810.96 298C810.341 298.704 809.797 299.397 809.328 300.08ZM822 287.216L824.656 287.216L824.656 276.56L822 276.56L822 287.216ZM826.416 287.216L829.104 287.216L829.104 276.56L826.416 276.56L826.416 287.216ZM817.616 287.216L820.24 287.216L820.24 276.56L817.616 276.56L817.616 287.216ZM815.76 289.488L815.76 274.192L830.992 274.192L830.992 289.488L815.76 289.488Z" fill="black"/>
<path d="M1031.12 337.879C1029.95 336.707 1028.05 336.707 1026.88 337.879L1007.79 356.971C1006.62 358.142 1006.62 360.042 1007.79 361.213C1008.96 362.385 1010.86 362.385 1012.03 361.213L1029 344.243L1045.97 361.213C1047.14 362.385 1049.04 362.385 1050.21 361.213C1051.38 360.042 1051.38 358.142 1050.21 356.971L1031.12 337.879ZM1029 420L1032 420L1032 340L1029 340L1026 340L1026 420L1029 420Z" fill="black"/>
<rect width="90" height="50" transform="matrix(1 0 0 -1 489 241)" fill="#FFE9BD" stroke="#757575" stroke-width="1.41262"/>
<path d="M533.652 228.318C532.697 228.303 531.743 228.121 530.788 227.773C529.834 227.424 528.963 226.837 528.175 226.011C527.387 225.178 526.754 224.053 526.277 222.636C525.8 221.212 525.561 219.424 525.561 217.273C525.561 215.212 525.754 213.386 526.141 211.795C526.527 210.197 527.088 208.852 527.822 207.761C528.557 206.663 529.444 205.83 530.482 205.261C531.527 204.693 532.705 204.409 534.016 204.409C535.319 204.409 536.478 204.67 537.493 205.193C538.516 205.708 539.349 206.428 539.993 207.352C540.637 208.277 541.054 209.341 541.243 210.545H538.47C538.213 209.5 537.713 208.633 536.97 207.943C536.228 207.254 535.243 206.909 534.016 206.909C532.213 206.909 530.792 207.693 529.754 209.261C528.724 210.83 528.205 213.03 528.197 215.864H528.379C528.804 215.22 529.307 214.67 529.891 214.216C530.482 213.754 531.133 213.398 531.845 213.148C532.557 212.898 533.311 212.773 534.107 212.773C535.44 212.773 536.66 213.106 537.766 213.773C538.872 214.432 539.758 215.345 540.425 216.511C541.091 217.67 541.425 219 541.425 220.5C541.425 221.939 541.103 223.258 540.459 224.455C539.815 225.644 538.91 226.591 537.743 227.295C536.584 227.992 535.22 228.333 533.652 228.318ZM533.652 225.818C534.607 225.818 535.463 225.58 536.22 225.102C536.985 224.625 537.588 223.985 538.027 223.182C538.474 222.379 538.697 221.485 538.697 220.5C538.697 219.538 538.482 218.663 538.05 217.875C537.625 217.08 537.038 216.447 536.288 215.977C535.546 215.508 534.697 215.273 533.743 215.273C533.023 215.273 532.353 215.417 531.732 215.705C531.11 215.985 530.565 216.371 530.095 216.864C529.633 217.356 529.269 217.92 529.004 218.557C528.739 219.186 528.607 219.848 528.607 220.545C528.607 221.47 528.822 222.333 529.254 223.136C529.694 223.939 530.292 224.587 531.05 225.08C531.815 225.572 532.682 225.818 533.652 225.818Z" fill="black"/>
</svg>
